<svg width="402" height="433" viewBox="0 0 402 433" fill="none" xmlns="http://www.w3.org/2000/svg">
<path d="M135.144 382.699C78.0568 360.475 17.9114 336.638 2.74363 240.865C-12.4241 145.092 54.8307 -38.0315 80.2163 35.8731C105.801 110.358 171.432 153.544 212.616 177.707C337.93 251.228 281.262 439.582 135.144 382.699Z" fill="#F2F2F2"/>
<path d="M135.296 381.938C104.396 369.908 72.088 357.835 45.7345 331.468C32.6368 318.364 21.631 301.616 14.0305 281.867C6.46986 262.285 2.11077 240.659 1.25937 218.507C0.568962 198.816 2.28821 179.013 5.20087 159.757C8.2686 139.631 12.6343 119.923 18.2461 100.868C23.2351 83.8623 29.1672 67.213 36.5923 51.9594C41.9099 41.0355 48.3218 29.3972 56.8363 22.9004C63.0696 18.1442 69.8187 18.4226 74.8414 25.8661C78.8364 31.7867 80.8159 39.7916 83.655 46.731C87.9948 57.2405 93.0514 67.156 98.7561 76.3428C121.459 113.188 152.257 139.321 183.461 160.345C190.339 164.979 197.299 169.379 204.31 173.617C211.414 177.911 218.576 181.969 225.444 186.965C238.04 196.129 249.87 207.636 259.573 222.088C274.566 244.42 283.908 274.492 280.401 305.224C277.054 334.557 262.756 358.759 244.363 373.289C219.364 393.038 188.964 395.558 161.012 389.691C152.333 387.835 143.745 385.246 135.296 381.938C135.151 381.89 134.999 381.922 134.871 382.026C134.743 382.13 134.65 382.299 134.61 382.496C134.571 382.693 134.589 382.904 134.66 383.084C134.731 383.264 134.85 383.398 134.991 383.46C151.829 389.984 169.262 394.051 186.785 394.032C200.993 394.017 215.307 391.298 228.744 384.794C239.849 379.419 250.341 371.439 259.138 360.602C266.961 350.966 273.331 339.096 277.374 325.725C281.276 312.8 282.889 298.779 282.082 284.824C281.208 269.858 277.598 255.397 272.084 242.491C265.574 227.251 256.555 214.268 246.421 203.518C240.324 197.092 233.856 191.361 227.083 186.383C220.013 181.145 212.625 176.924 205.281 172.492C190.289 163.444 175.52 153.645 161.298 142.465C145.42 129.984 130.153 115.794 116.494 98.9994C102.765 82.1191 90.6359 62.4514 82.2449 39.7751C78.7228 30.257 74.6566 18.4707 65.7357 17.954C57.9382 17.5024 50.9786 25.7734 45.9489 33.0423C37.7262 44.9258 31.4054 59.3242 25.9637 73.8456C19.2563 91.9057 13.7528 110.768 9.52103 130.201C5.16311 149.97 1.97625 170.328 0.621779 190.924C-0.659677 210.409 -0.0897802 229.881 3.55066 248.848C7.93863 271.711 15.7973 293.119 27.2772 310.776C37.9031 327.119 51.1616 339.747 65.3072 349.624C80.0549 359.921 95.7403 367.435 111.525 374.073C119.315 377.349 127.153 380.408 134.991 383.46C135.136 383.507 135.288 383.475 135.416 383.371C135.544 383.267 135.637 383.099 135.677 382.901C135.716 382.704 135.699 382.493 135.627 382.313C135.556 382.134 135.438 381.999 135.296 381.938Z" fill="#F2F2F2"/>
<path d="M250.147 80.3407C250.159 115.712 234.909 128.07 216.094 128.083C215.657 128.083 215.222 128.077 214.789 128.064C213.917 128.038 213.054 127.984 212.2 127.901C195.218 126.255 182.019 113.281 182.007 80.3863C181.995 46.3442 213.543 3.36264 215.909 0.184561C215.911 0.184561 215.911 0.184561 215.913 0.181673C216.003 0.0605538 216.049 0 216.049 0C216.049 0 250.135 44.9727 250.147 80.3407Z" fill="#6C63FF"/>
<path d="M214.852 122.673L227.304 98.6654L214.822 125.308L214.789 128.064C213.917 128.038 213.054 127.984 212.2 127.901L213.53 92.5148L213.52 92.241L213.543 92.189L213.669 88.8453L201.136 62.1533L213.706 86.3404L213.738 87.0495L214.742 60.3138L204.012 32.7299L214.872 55.6153L215.909 0.184527L215.913 6.10352e-05L215.913 0.18164L215.753 43.8945L226.417 26.5579L215.708 47.6591L215.434 71.5982L225.394 48.6182L215.396 75.1178L215.244 88.4292L229.698 56.4413L215.189 93.0729L214.852 122.673Z" fill="#3F3D56"/>
<path d="M252.123 74.5544H89.2868V397.525H252.123C253.189 397.526 254.244 397.236 255.229 396.674C256.214 396.112 257.109 395.288 257.862 394.249C258.616 393.21 259.214 391.976 259.622 390.619C260.03 389.261 260.239 387.806 260.239 386.337V85.7427C260.239 84.2733 260.03 82.8183 259.622 81.4608C259.214 80.1033 258.616 78.8698 257.862 77.8308C257.109 76.7918 256.214 75.9677 255.229 75.4055C254.244 74.8434 253.189 74.5542 252.123 74.5544V74.5544ZM98.0634 391.739C97.2332 391.739 96.4216 391.4 95.7314 390.764C95.0411 390.128 94.5031 389.225 94.1854 388.167C93.8677 387.11 93.7846 385.947 93.9465 384.824C94.1085 383.702 94.5083 382.671 95.0953 381.862C95.6823 381.052 96.4303 380.501 97.2445 380.278C98.0587 380.055 98.9027 380.169 99.6697 380.607C100.437 381.045 101.092 381.787 101.553 382.738C102.015 383.69 102.261 384.809 102.261 385.953C102.261 386.713 102.153 387.466 101.942 388.168C101.731 388.87 101.422 389.508 101.032 390.045C100.642 390.583 100.179 391.009 99.6701 391.3C99.1607 391.59 98.6147 391.74 98.0634 391.739V391.739ZM98.0634 371.751C97.2332 371.751 96.4216 371.411 95.7314 370.776C95.0411 370.14 94.5031 369.236 94.1854 368.179C93.8677 367.122 93.7846 365.958 93.9465 364.836C94.1085 363.713 94.5083 362.682 95.0953 361.873C95.6823 361.064 96.4303 360.513 97.2445 360.29C98.0587 360.066 98.9027 360.181 99.6697 360.619C100.437 361.057 101.092 361.799 101.553 362.75C102.015 363.702 102.261 364.82 102.261 365.965C102.261 366.725 102.153 367.477 101.942 368.179C101.731 368.882 101.422 369.52 101.032 370.057C100.642 370.594 100.179 371.021 99.6701 371.311C99.1607 371.602 98.6147 371.751 98.0634 371.751V371.751ZM98.0634 351.762C97.2332 351.762 96.4216 351.423 95.7314 350.787C95.0411 350.151 94.5031 349.248 94.1854 348.19C93.8677 347.133 93.7846 345.97 93.9465 344.847C94.1085 343.725 94.5083 342.694 95.0953 341.885C95.6823 341.076 96.4303 340.525 97.2445 340.301C98.0587 340.078 98.9027 340.193 99.6697 340.631C100.437 341.068 101.092 341.81 101.553 342.762C102.015 343.713 102.261 344.832 102.261 345.976C102.261 346.736 102.153 347.489 101.942 348.191C101.731 348.893 101.422 349.531 101.032 350.069C100.642 350.606 100.179 351.032 99.6701 351.323C99.1607 351.613 98.6147 351.763 98.0634 351.762V351.762ZM98.0634 331.774C97.2332 331.774 96.4216 331.435 95.7314 330.799C95.0411 330.163 94.5031 329.259 94.1854 328.202C93.8677 327.145 93.7846 325.981 93.9465 324.859C94.1085 323.737 94.5083 322.706 95.0953 321.896C95.6823 321.087 96.4303 320.536 97.2445 320.313C98.0587 320.09 98.9027 320.204 99.6697 320.642C100.437 321.08 101.092 321.822 101.553 322.773C102.015 323.725 102.261 324.843 102.261 325.988C102.261 326.748 102.153 327.5 101.942 328.203C101.731 328.905 101.422 329.543 101.032 330.08C100.642 330.618 100.179 331.044 99.6701 331.334C99.1607 331.625 98.6147 331.774 98.0634 331.774V331.774ZM98.0634 311.785C97.2332 311.785 96.4216 311.446 95.7314 310.81C95.0411 310.175 94.5031 309.271 94.1854 308.214C93.8677 307.156 93.7846 305.993 93.9465 304.871C94.1085 303.748 94.5083 302.717 95.0953 301.908C95.6823 301.099 96.4303 300.548 97.2445 300.324C98.0587 300.101 98.9027 300.216 99.6697 300.654C100.437 301.092 101.092 301.833 101.553 302.785C102.015 303.736 102.261 304.855 102.261 305.999C102.261 306.759 102.153 307.512 101.942 308.214C101.731 308.916 101.422 309.554 101.032 310.092C100.642 310.629 100.179 311.055 99.6701 311.346C99.1607 311.637 98.6147 311.786 98.0634 311.785V311.785ZM98.0634 291.797C97.2332 291.797 96.4216 291.458 95.7314 290.822C95.0411 290.186 94.5031 289.282 94.1854 288.225C93.8677 287.168 93.7846 286.005 93.9465 284.882C94.1085 283.76 94.5083 282.729 95.0953 281.92C95.6823 281.11 96.4303 280.559 97.2445 280.336C98.0587 280.113 98.9027 280.227 99.6697 280.665C100.437 281.103 101.092 281.845 101.553 282.796C102.015 283.748 102.261 284.867 102.261 286.011C102.261 286.771 102.153 287.523 101.942 288.226C101.731 288.928 101.422 289.566 101.032 290.103C100.642 290.641 100.179 291.067 99.6701 291.357C99.1607 291.648 98.6147 291.797 98.0634 291.797V291.797ZM98.0634 271.809C97.2332 271.809 96.4216 271.469 95.7314 270.833C95.0411 270.198 94.5031 269.294 94.1854 268.237C93.8677 267.179 93.7846 266.016 93.9465 264.894C94.1085 263.771 94.5083 262.74 95.0953 261.931C95.6823 261.122 96.4303 260.571 97.2445 260.348C98.0587 260.124 98.9027 260.239 99.6697 260.677C100.437 261.115 101.092 261.856 101.553 262.808C102.015 263.759 102.261 264.878 102.261 266.023C102.261 266.782 102.153 267.535 101.942 268.237C101.731 268.939 101.422 269.577 101.032 270.115C100.642 270.652 100.179 271.078 99.6701 271.369C99.1607 271.66 98.6147 271.809 98.0634 271.809V271.809ZM98.0634 251.82C97.2332 251.82 96.4216 251.481 95.7314 250.845C95.0411 250.209 94.5031 249.306 94.1854 248.248C93.8677 247.191 93.7846 246.028 93.9465 244.905C94.1085 243.783 94.5083 242.752 95.0953 241.943C95.6823 241.133 96.4303 240.582 97.2445 240.359C98.0587 240.136 98.9027 240.25 99.6697 240.688C100.437 241.126 101.092 241.868 101.553 242.819C102.015 243.771 102.261 244.89 102.261 246.034C102.261 246.794 102.153 247.547 101.942 248.249C101.731 248.951 101.422 249.589 101.032 250.126C100.642 250.664 100.179 251.09 99.6701 251.381C99.1607 251.671 98.6147 251.821 98.0634 251.82V251.82ZM98.0634 231.832C97.2332 231.832 96.4216 231.492 95.7314 230.857C95.0411 230.221 94.5031 229.317 94.1854 228.26C93.8677 227.203 93.7846 226.039 93.9465 224.917C94.1085 223.794 94.5083 222.763 95.0953 221.954C95.6823 221.145 96.4303 220.594 97.2445 220.371C98.0587 220.147 98.9027 220.262 99.6697 220.7C100.437 221.138 101.092 221.88 101.553 222.831C102.015 223.783 102.261 224.901 102.261 226.046C102.261 226.806 102.153 227.558 101.942 228.26C101.731 228.963 101.422 229.601 101.032 230.138C100.642 230.675 100.179 231.102 99.6701 231.392C99.1607 231.683 98.6147 231.832 98.0634 231.832V231.832ZM98.0634 211.843C97.2332 211.843 96.4216 211.504 95.7314 210.868C95.0411 210.232 94.5031 209.329 94.1854 208.271C93.8677 207.214 93.7846 206.051 93.9465 204.928C94.1085 203.806 94.5083 202.775 95.0953 201.966C95.6823 201.157 96.4303 200.606 97.2445 200.382C98.0587 200.159 98.9027 200.274 99.6697 200.712C100.437 201.149 101.092 201.891 101.553 202.843C102.015 203.794 102.261 204.913 102.261 206.057C102.261 206.817 102.153 207.57 101.942 208.272C101.731 208.974 101.422 209.612 101.032 210.15C100.642 210.687 100.179 211.113 99.6701 211.404C99.1607 211.694 98.6147 211.844 98.0634 211.843V211.843ZM98.0634 191.855C97.2332 191.855 96.4216 191.516 95.7314 190.88C95.0411 190.244 94.5031 189.34 94.1854 188.283C93.8677 187.226 93.7846 186.062 93.9465 184.94C94.1085 183.818 94.5083 182.787 95.0953 181.977C95.6823 181.168 96.4303 180.617 97.2445 180.394C98.0587 180.171 98.9027 180.285 99.6697 180.723C100.437 181.161 101.092 181.903 101.553 182.854C102.015 183.806 102.261 184.924 102.261 186.069C102.261 186.829 102.153 187.581 101.942 188.284C101.731 188.986 101.422 189.624 101.032 190.161C100.642 190.699 100.179 191.125 99.6701 191.415C99.1607 191.706 98.6147 191.855 98.0634 191.855V191.855ZM98.0634 171.866C97.2332 171.866 96.4216 171.527 95.7314 170.891C95.0411 170.256 94.5031 169.352 94.1854 168.295C93.8677 167.237 93.7846 166.074 93.9465 164.952C94.1085 163.829 94.5083 162.798 95.0953 161.989C95.6823 161.18 96.4303 160.629 97.2445 160.405C98.0587 160.182 98.9027 160.297 99.6697 160.735C100.437 161.173 101.092 161.914 101.553 162.866C102.015 163.817 102.261 164.936 102.261 166.08C102.261 166.84 102.153 167.593 101.942 168.295C101.731 168.997 101.422 169.635 101.032 170.173C100.642 170.71 100.179 171.136 99.6701 171.427C99.1607 171.718 98.6147 171.867 98.0634 171.866V171.866ZM98.0634 151.878C97.2332 151.878 96.4216 151.539 95.7314 150.903C95.0411 150.267 94.5031 149.363 94.1854 148.306C93.8677 147.249 93.7846 146.086 93.9465 144.963C94.1085 143.841 94.5083 142.81 95.0953 142.001C95.6823 141.191 96.4303 140.64 97.2445 140.417C98.0587 140.194 98.9027 140.308 99.6697 140.746C100.437 141.184 101.092 141.926 101.553 142.877C102.015 143.829 102.261 144.948 102.261 146.092C102.261 146.852 102.153 147.605 101.942 148.307C101.731 149.009 101.422 149.647 101.032 150.184C100.642 150.722 100.179 151.148 99.6701 151.438C99.1607 151.729 98.6147 151.878 98.0634 151.878V151.878ZM98.0634 131.89C97.2332 131.89 96.4216 131.55 95.7314 130.915C95.0411 130.279 94.5031 129.375 94.1854 128.318C93.8677 127.26 93.7846 126.097 93.9465 124.975C94.1085 123.852 94.5083 122.821 95.0953 122.012C95.6823 121.203 96.4303 120.652 97.2445 120.429C98.0587 120.205 98.9027 120.32 99.6697 120.758C100.437 121.196 101.092 121.937 101.553 122.889C102.015 123.84 102.261 124.959 102.261 126.104C102.261 126.863 102.153 127.616 101.942 128.318C101.731 129.02 101.422 129.659 101.032 130.196C100.642 130.733 100.179 131.159 99.6701 131.45C99.1607 131.741 98.6147 131.89 98.0634 131.89V131.89ZM98.0634 111.901C97.2332 111.901 96.4216 111.562 95.7314 110.926C95.0411 110.29 94.5031 109.387 94.1854 108.329C93.8677 107.272 93.7846 106.109 93.9465 104.986C94.1085 103.864 94.5083 102.833 95.0953 102.024C95.6823 101.214 96.4303 100.663 97.2445 100.44C98.0587 100.217 98.9027 100.331 99.6697 100.769C100.437 101.207 101.092 101.949 101.553 102.9C102.015 103.852 102.261 104.971 102.261 106.115C102.261 106.875 102.153 107.628 101.942 108.33C101.731 109.032 101.422 109.67 101.032 110.207C100.642 110.745 100.179 111.171 99.6701 111.462C99.1607 111.752 98.6147 111.902 98.0634 111.901V111.901ZM98.0634 91.9128C97.2332 91.9128 96.4216 91.5734 95.7314 90.9376C95.0411 90.3019 94.5031 89.3982 94.1854 88.3409C93.8677 87.2836 93.7846 86.1202 93.9465 84.9978C94.1085 83.8754 94.5083 82.8445 95.0953 82.0353C95.6823 81.2261 96.4303 80.675 97.2445 80.4517C98.0587 80.2285 98.9027 80.343 99.6697 80.781C100.437 81.2189 101.092 81.9605 101.553 82.9121C102.015 83.8636 102.261 84.9823 102.261 86.1267C102.261 86.8866 102.153 87.6392 101.942 88.3414C101.731 89.0436 101.422 89.6816 101.032 90.219C100.642 90.7564 100.179 91.1826 99.6701 91.4732C99.1607 91.7638 98.6147 91.9132 98.0634 91.9128V91.9128Z" fill="#3F3D56"/>
<path d="M90.05 285.485C88.3932 285.485 80.1287 285.371 80.1287 283.118C80.1287 281.056 87.1352 280.789 89.2825 280.756L89.2911 281.808C84.644 281.879 81.6364 282.577 80.9777 283.118C81.6789 283.694 85.0301 284.433 90.05 284.433C94.8657 284.433 98.1458 283.753 99.0235 283.189C98.6214 282.995 97.6099 282.664 95.0696 282.243L95.1609 281.198C99.6263 281.938 99.9714 282.461 99.9714 283.118C99.9714 285.371 91.7068 285.485 90.05 285.485Z" fill="black"/>
<path d="M90.05 290.219C88.3932 290.219 80.1287 290.105 80.1287 287.852C80.1287 285.791 87.1352 285.523 89.2825 285.491L89.2911 286.543C84.644 286.613 81.6364 287.312 80.9777 287.852C81.6789 288.428 85.0301 289.167 90.05 289.167C94.7465 289.167 97.9824 288.52 98.9539 287.965C98.0843 287.647 95.9473 287.303 94.7079 287.104L93.9248 286.977L94.0161 285.932L94.7962 286.059C99.4629 286.809 99.9714 287.086 99.9714 287.852C99.9714 290.105 91.7068 290.219 90.05 290.219Z" fill="black"/>
<path d="M90.05 266.022C88.3932 266.022 80.1287 265.908 80.1287 263.655C80.1287 261.594 87.1352 261.327 89.2825 261.294L89.2911 262.346C84.644 262.417 81.6364 263.115 80.9777 263.655C81.6789 264.231 85.0301 264.97 90.05 264.97C94.8657 264.97 98.1458 264.29 99.0235 263.726C98.6214 263.532 97.6099 263.201 95.0696 262.78L95.1609 261.735C99.6263 262.476 99.9714 262.998 99.9714 263.655C99.9714 265.908 91.7068 266.022 90.05 266.022Z" fill="black"/>
<path d="M90.05 270.757C88.3932 270.757 80.1287 270.643 80.1287 268.39C80.1287 266.328 87.1352 266.061 89.2825 266.028L89.2911 267.08C84.644 267.151 81.6364 267.849 80.9777 268.39C81.6789 268.965 85.0301 269.705 90.05 269.705C94.7465 269.705 97.9824 269.058 98.9539 268.503C98.0843 268.185 95.9473 267.84 94.7079 267.641L93.9248 267.514L94.0161 266.469L94.7962 266.596C99.4629 267.347 99.9714 267.623 99.9714 268.39C99.9714 270.643 91.7068 270.757 90.05 270.757Z" fill="black"/>
<path d="M90.05 245.508C88.3932 245.508 80.1287 245.394 80.1287 243.141C80.1287 241.08 87.1352 240.812 89.2825 240.78L89.2911 241.832C84.644 241.902 81.6364 242.601 80.9777 243.141C81.6789 243.717 85.0301 244.456 90.05 244.456C94.8657 244.456 98.1458 243.776 99.0235 243.212C98.6214 243.018 97.6099 242.687 95.0696 242.266L95.1609 241.221C99.6263 241.962 99.9714 242.484 99.9714 243.141C99.9714 245.394 91.7068 245.508 90.05 245.508Z" fill="black"/>
<path d="M90.05 250.242C88.3932 250.242 80.1287 250.128 80.1287 247.875C80.1287 245.814 87.1352 245.547 89.2825 245.514L89.2911 246.566C84.644 246.637 81.6364 247.335 80.9777 247.875C81.6789 248.451 85.0301 249.19 90.05 249.19C94.7465 249.19 97.9824 248.543 98.9539 247.988C98.0843 247.67 95.9473 247.326 94.7079 247.127L93.9248 247L94.0161 245.955L94.7962 246.082C99.4629 246.832 99.9714 247.109 99.9714 247.875C99.9714 250.128 91.7068 250.242 90.05 250.242Z" fill="black"/>
<path d="M90.05 225.52C88.3932 225.52 80.1287 225.406 80.1287 223.153C80.1287 221.091 87.1352 220.824 89.2825 220.791L89.2911 221.843C84.644 221.914 81.6364 222.612 80.9777 223.153C81.6789 223.728 85.0301 224.468 90.05 224.468C94.8657 224.468 98.1458 223.787 99.0235 223.223C98.6214 223.029 97.6099 222.698 95.0696 222.277L95.1609 221.232C99.6263 221.973 99.9714 222.496 99.9714 223.153C99.9714 225.406 91.7068 225.52 90.05 225.52Z" fill="black"/>
<path d="M90.05 230.254C88.3932 230.254 80.1287 230.14 80.1287 227.887C80.1287 225.825 87.1352 225.558 89.2825 225.525L89.2911 226.577C84.644 226.648 81.6364 227.346 80.9777 227.887C81.6789 228.462 85.0301 229.202 90.05 229.202C94.7465 229.202 97.9824 228.555 98.9539 228C98.0843 227.682 95.9473 227.338 94.7079 227.138L93.9248 227.011L94.0161 225.967L94.7962 226.093C99.4629 226.844 99.9714 227.12 99.9714 227.887C99.9714 230.14 91.7068 230.254 90.05 230.254Z" fill="black"/>
<path d="M90.05 205.531C88.3932 205.531 80.1287 205.417 80.1287 203.164C80.1287 201.103 87.1352 200.836 89.2825 200.803L89.2911 201.855C84.6437 201.926 81.636 202.624 80.9777 203.164C81.6787 203.74 85.0299 204.479 90.05 204.479C94.8663 204.479 98.1463 203.799 99.0239 203.235C98.6218 203.041 97.6105 202.71 95.0697 202.289L95.1607 201.244C99.6263 201.984 99.9714 202.506 99.9714 203.164C99.9714 205.417 91.7068 205.531 90.05 205.531Z" fill="black"/>
<path d="M90.05 210.265C88.3932 210.265 80.1287 210.151 80.1287 207.898C80.1287 205.837 87.1352 205.57 89.2825 205.537L89.2911 206.589C84.6437 206.66 81.636 207.358 80.9777 207.898C81.6787 208.474 85.0299 209.213 90.05 209.213C94.747 209.213 97.9829 208.566 98.9542 208.011C98.0841 207.693 95.9434 207.349 94.7016 207.149L93.925 207.023L94.0159 205.979L94.7899 206.104C99.4623 206.855 99.9714 207.131 99.9714 207.898C99.9714 210.151 91.7068 210.265 90.05 210.265Z" fill="black"/>
<path d="M90.05 185.543C88.3932 185.543 80.1287 185.429 80.1287 183.176C80.1287 181.115 87.1352 180.847 89.2825 180.815L89.2911 181.867C84.6437 181.937 81.636 182.636 80.9777 183.176C81.6787 183.752 85.0299 184.491 90.05 184.491C94.8663 184.491 98.1463 183.81 99.0239 183.247C98.6218 183.052 97.6105 182.721 95.0697 182.3L95.1607 181.256C99.6263 181.995 99.9714 182.518 99.9714 183.176C99.9714 185.429 91.7068 185.543 90.05 185.543Z" fill="black"/>
<path d="M90.05 190.277C88.3932 190.277 80.1287 190.163 80.1287 187.91C80.1287 185.849 87.1352 185.582 89.2825 185.549L89.2911 186.601C84.6437 186.672 81.636 187.37 80.9777 187.91C81.6787 188.486 85.0299 189.225 90.05 189.225C94.747 189.225 97.9829 188.578 98.9542 188.023C98.0841 187.704 95.9434 187.36 94.7016 187.161L93.925 187.034L94.0159 185.99L94.7899 186.115C99.4623 186.867 99.9714 187.143 99.9714 187.91C99.9714 190.163 91.7068 190.277 90.05 190.277Z" fill="black"/>
<path d="M90.05 165.554C88.3932 165.554 80.1287 165.44 80.1287 163.187C80.1287 161.126 87.1352 160.859 89.2825 160.826L89.2911 161.878C84.6437 161.949 81.636 162.647 80.9777 163.187C81.6787 163.763 85.0299 164.502 90.05 164.502C94.8663 164.502 98.1463 163.822 99.0239 163.258C98.6218 163.064 97.6105 162.733 95.0697 162.312L95.1607 161.268C99.6263 162.007 99.9714 162.53 99.9714 163.187C99.9714 165.44 91.7068 165.554 90.05 165.554Z" fill="black"/>
<path d="M90.05 170.288C88.3932 170.288 80.1287 170.174 80.1287 167.921C80.1287 165.86 87.1352 165.593 89.2825 165.56L89.2911 166.612C84.6437 166.683 81.636 167.381 80.9777 167.921C81.6787 168.497 85.0299 169.236 90.05 169.236C94.747 169.236 97.9829 168.589 98.9542 168.034C98.0841 167.716 95.9434 167.372 94.7016 167.172L93.925 167.046L94.0159 166.002L94.7899 166.127C99.4623 166.878 99.9714 167.154 99.9714 167.921C99.9714 170.174 91.7068 170.288 90.05 170.288Z" fill="black"/>
<path d="M90.05 145.566C88.3932 145.566 80.1287 145.452 80.1287 143.199C80.1287 141.138 87.1352 140.871 89.2825 140.838L89.2911 141.89C84.6437 141.961 81.636 142.659 80.9777 143.199C81.6787 143.775 85.0299 144.514 90.05 144.514C94.8663 144.514 98.1463 143.833 99.0239 143.27C98.6218 143.076 97.6105 142.744 95.0697 142.324L95.1607 141.279C99.6263 142.018 99.9714 142.541 99.9714 143.199C99.9714 145.452 91.7068 145.566 90.05 145.566Z" fill="black"/>
<path d="M90.05 150.3C88.3932 150.3 80.1287 150.186 80.1287 147.933C80.1287 145.872 87.1352 145.605 89.2825 145.572L89.2911 146.624C84.6437 146.695 81.636 147.393 80.9777 147.933C81.6787 148.509 85.0299 149.248 90.05 149.248C94.747 149.248 97.9829 148.601 98.9542 148.046C98.0841 147.727 95.9434 147.383 94.7016 147.184L93.925 147.058L94.0159 146.013L94.7899 146.139C99.4623 146.89 99.9714 147.166 99.9714 147.933C99.9714 150.186 91.7068 150.3 90.05 150.3Z" fill="black"/>
<path d="M90.05 125.577C88.3932 125.577 80.1287 125.463 80.1287 123.21C80.1287 121.149 87.1352 120.882 89.2825 120.849L89.2911 121.901C84.6437 121.972 81.636 122.67 80.9777 123.21C81.6787 123.786 85.0299 124.525 90.05 124.525C94.8663 124.525 98.1463 123.845 99.0239 123.281C98.6218 123.087 97.6105 122.756 95.0697 122.335L95.1607 121.291C99.6263 122.03 99.9714 122.553 99.9714 123.21C99.9714 125.463 91.7068 125.577 90.05 125.577Z" fill="black"/>
<path d="M90.05 130.312C88.3932 130.312 80.1287 130.198 80.1287 127.945C80.1287 125.883 87.1352 125.616 89.2825 125.583L89.2911 126.635C84.6437 126.706 81.636 127.404 80.9777 127.945C81.6787 128.52 85.0299 129.26 90.05 129.26C94.747 129.26 97.9829 128.613 98.9542 128.058C98.0841 127.739 95.9434 127.395 94.7016 127.195L93.925 127.069L94.0159 126.025L94.7899 126.15C99.4623 126.901 99.9714 127.178 99.9714 127.945C99.9714 130.198 91.7068 130.312 90.05 130.312Z" fill="black"/>
<path d="M90.05 105.589C88.3932 105.589 80.1287 105.475 80.1287 103.222C80.1287 101.161 87.1352 100.894 89.2825 100.861L89.2911 101.913C84.6437 101.984 81.636 102.682 80.9777 103.222C81.6787 103.798 85.0299 104.537 90.05 104.537C94.8663 104.537 98.1463 103.857 99.0239 103.293C98.6218 103.099 97.6105 102.767 95.0697 102.347L95.1607 101.302C99.6263 102.042 99.9714 102.564 99.9714 103.222C99.9714 105.475 91.7068 105.589 90.05 105.589Z" fill="black"/>
<path d="M90.05 110.323C88.3932 110.323 80.1287 110.209 80.1287 107.956C80.1287 105.895 87.1352 105.628 89.2825 105.595L89.2911 106.647C84.6437 106.718 81.636 107.416 80.9777 107.956C81.6787 108.532 85.0299 109.271 90.05 109.271C94.747 109.271 97.9829 108.624 98.9542 108.069C98.0841 107.75 95.9434 107.406 94.7016 107.207L93.925 107.081L94.0159 106.036L94.7899 106.162C99.4623 106.913 99.9714 107.189 99.9714 107.956C99.9714 110.209 91.7068 110.323 90.05 110.323Z" fill="black"/>
<path d="M90.05 85.6006C88.3932 85.6006 80.1287 85.4866 80.1287 83.2336C80.1287 81.1724 87.1352 80.9053 89.2825 80.8724L89.2911 81.9245C84.6437 81.9953 81.636 82.6934 80.9777 83.2336C81.6787 83.8094 85.0299 84.5486 90.05 84.5486C94.8663 84.5486 98.1463 83.8682 99.0239 83.3045C98.6218 83.1103 97.6105 82.779 95.0697 82.3583L95.1607 81.3139C99.6263 82.0531 99.9714 82.5758 99.9714 83.2336C99.9714 85.4866 91.7068 85.6006 90.05 85.6006Z" fill="black"/>
<path d="M90.05 90.3347C88.3932 90.3347 80.1287 90.2207 80.1287 87.9677C80.1287 85.9066 87.1352 85.6394 89.2825 85.6066L89.2911 86.6586C84.6437 86.7295 81.636 87.4276 80.9777 87.9677C81.6787 88.5435 85.0299 89.2827 90.05 89.2827C94.747 89.2827 97.9829 88.6357 98.9542 88.0807C98.0841 87.762 95.9434 87.4181 94.7016 87.2185L93.925 87.0924L94.0159 86.0481L94.7899 86.1734C99.4623 86.9244 99.9714 87.2008 99.9714 87.9677C99.9714 90.2207 91.7068 90.3347 90.05 90.3347Z" fill="black"/>
<path d="M90.05 305.999C88.3932 305.999 80.1287 305.885 80.1287 303.632C80.1287 301.571 87.1352 301.304 89.2825 301.271L89.2911 302.323C84.644 302.394 81.6364 303.092 80.9777 303.632C81.6789 304.208 85.0301 304.947 90.05 304.947C94.8657 304.947 98.1458 304.267 99.0235 303.703C98.6214 303.509 97.6099 303.178 95.0696 302.757L95.1609 301.712C99.6263 302.453 99.9714 302.975 99.9714 303.632C99.9714 305.885 91.7068 305.999 90.05 305.999Z" fill="black"/>
<path d="M90.05 310.733C88.3932 310.733 80.1287 310.619 80.1287 308.366C80.1287 306.305 87.1352 306.038 89.2825 306.005L89.2911 307.057C84.644 307.128 81.6364 307.826 80.9777 308.366C81.6789 308.942 85.0301 309.681 90.05 309.681C94.7465 309.681 97.9824 309.035 98.9539 308.479C98.0843 308.161 95.9473 307.817 94.7079 307.618L93.9248 307.491L94.0161 306.446L94.7962 306.573C99.4629 307.324 99.9714 307.6 99.9714 308.366C99.9714 310.619 91.7068 310.733 90.05 310.733Z" fill="black"/>
<path d="M90.05 325.462C88.3932 325.462 80.1287 325.348 80.1287 323.095C80.1287 321.033 87.1352 320.766 89.2825 320.733L89.2911 321.785C84.644 321.856 81.6364 322.554 80.9777 323.095C81.6789 323.671 85.0301 324.41 90.05 324.41C94.8657 324.41 98.1458 323.73 99.0235 323.166C98.6214 322.971 97.6099 322.641 95.0696 322.219L95.1609 321.175C99.6263 321.915 99.9714 322.438 99.9714 323.095C99.9714 325.348 91.7068 325.462 90.05 325.462Z" fill="black"/>
<path d="M90.05 330.196C88.3932 330.196 80.1287 330.082 80.1287 327.829C80.1287 325.767 87.1352 325.5 89.2825 325.467L89.2911 326.519C84.644 326.59 81.6364 327.288 80.9777 327.829C81.6789 328.405 85.0301 329.144 90.05 329.144C94.7465 329.144 97.9824 328.497 98.9539 327.942C98.0843 327.624 95.9473 327.28 94.7079 327.08L93.9248 326.953L94.0161 325.909L94.7962 326.036C99.4629 326.786 99.9714 327.062 99.9714 327.829C99.9714 330.082 91.7068 330.196 90.05 330.196Z" fill="black"/>
<path d="M90.05 345.976C88.3932 345.976 80.1287 345.862 80.1287 343.609C80.1287 341.548 87.1352 341.281 89.2825 341.248L89.2911 342.3C84.644 342.371 81.6364 343.069 80.9777 343.609C81.6789 344.185 85.0301 344.924 90.05 344.924C94.8657 344.924 98.1458 344.244 99.0235 343.68C98.6214 343.486 97.6099 343.155 95.0696 342.734L95.1609 341.689C99.6263 342.43 99.9714 342.952 99.9714 343.609C99.9714 345.862 91.7068 345.976 90.05 345.976Z" fill="black"/>
<path d="M90.05 350.71C88.3932 350.71 80.1287 350.596 80.1287 348.343C80.1287 346.282 87.1352 346.015 89.2825 345.982L89.2911 347.034C84.644 347.105 81.6364 347.803 80.9777 348.343C81.6789 348.919 85.0301 349.658 90.05 349.658C94.7465 349.658 97.9824 349.011 98.9539 348.456C98.0843 348.138 95.9473 347.794 94.7079 347.595L93.9248 347.468L94.0161 346.423L94.7962 346.55C99.4629 347.3 99.9714 347.577 99.9714 348.343C99.9714 350.596 91.7068 350.71 90.05 350.71Z" fill="black"/>
<path d="M90.05 365.439C88.3932 365.439 80.1287 365.325 80.1287 363.072C80.1287 361.01 87.1352 360.743 89.2825 360.71L89.2911 361.762C84.644 361.833 81.6364 362.531 80.9777 363.072C81.6789 363.647 85.0301 364.387 90.05 364.387C94.8657 364.387 98.1458 363.706 99.0235 363.142C98.6214 362.948 97.6099 362.617 95.0696 362.196L95.1609 361.151C99.6263 361.892 99.9714 362.415 99.9714 363.072C99.9714 365.325 91.7068 365.439 90.05 365.439Z" fill="black"/>
<path d="M90.05 370.173C88.3932 370.173 80.1287 370.059 80.1287 367.806C80.1287 365.744 87.1352 365.477 89.2825 365.444L89.2911 366.496C84.644 366.567 81.6364 367.265 80.9777 367.806C81.6789 368.381 85.0301 369.121 90.05 369.121C94.7465 369.121 97.9824 368.474 98.9539 367.919C98.0843 367.601 95.9473 367.256 94.7079 367.057L93.9248 366.93L94.0161 365.885L94.7962 366.012C99.4629 366.763 99.9714 367.039 99.9714 367.806C99.9714 370.059 91.7068 370.173 90.05 370.173Z" fill="black"/>
<path d="M90.05 385.427C88.3932 385.427 80.1287 385.313 80.1287 383.06C80.1287 380.999 87.1352 380.731 89.2825 380.699L89.2911 381.751C84.644 381.821 81.6364 382.52 80.9777 383.06C81.6789 383.636 85.0301 384.375 90.05 384.375C94.8657 384.375 98.1458 383.695 99.0235 383.131C98.6214 382.937 97.6099 382.606 95.0696 382.185L95.1609 381.14C99.6263 381.881 99.9714 382.403 99.9714 383.06C99.9714 385.313 91.7068 385.427 90.05 385.427Z" fill="black"/>
<path d="M90.05 390.161C88.3932 390.161 80.1287 390.047 80.1287 387.794C80.1287 385.733 87.1352 385.466 89.2825 385.433L89.2911 386.485C84.644 386.556 81.6364 387.254 80.9777 387.794C81.6789 388.37 85.0301 389.109 90.05 389.109C94.7465 389.109 97.9824 388.462 98.9539 387.907C98.0843 387.589 95.9473 387.245 94.7079 387.046L93.9248 386.919L94.0161 385.874L94.7962 386.001C99.4629 386.751 99.9714 387.028 99.9714 387.794C99.9714 390.047 91.7068 390.161 90.05 390.161Z" fill="black"/>
<path d="M402 396.736H18.5018V397.788H402V396.736Z" fill="#3F3D56"/>
<path d="M36.7657 85.594C35.8601 85.594 34.9748 85.2238 34.2217 84.5302C33.4687 83.8366 32.8818 82.8508 32.5352 81.6974C32.1886 80.544 32.0979 79.2749 32.2746 78.0504C32.4513 76.826 32.8874 75.7013 33.5278 74.8185C34.1682 73.9357 34.9841 73.3346 35.8724 73.091C36.7606 72.8475 37.6814 72.9725 38.5181 73.4502C39.3548 73.928 40.0699 74.737 40.5731 75.775C41.0763 76.8131 41.3448 78.0334 41.3448 79.2819C41.3435 80.9554 40.8606 82.5598 40.0021 83.7432C39.1437 84.9265 37.9798 85.5921 36.7657 85.594V85.594ZM36.7657 74.0218C36.011 74.0218 35.2733 74.3303 34.6457 74.9082C34.0182 75.4862 33.5291 76.3078 33.2403 77.2689C32.9515 78.2301 32.8759 79.2877 33.0231 80.3081C33.1704 81.3284 33.5338 82.2657 34.0675 83.0013C34.6011 83.737 35.2811 84.2379 36.0213 84.4409C36.7615 84.6439 37.5287 84.5397 38.226 84.1416C38.9233 83.7435 39.5192 83.0693 39.9385 82.2042C40.3578 81.3392 40.5816 80.3222 40.5816 79.2819C40.5805 77.8873 40.1781 76.5503 39.4627 75.5642C38.7473 74.578 37.7774 74.0233 36.7657 74.0218V74.0218Z" fill="#3F3D56"/>
<path d="M53.2265 249.979H43.3052V236.303H53.2265V249.979ZM44.0684 248.927H52.4633V237.355H44.0684V248.927Z" fill="#3F3D56"/>
<path d="M147.853 57.6465L141.238 47.4536L148.632 38.3352L155.247 48.5281L147.853 57.6465ZM142.316 47.5363L147.913 56.161L154.169 48.4454L148.572 39.8207L142.316 47.5363Z" fill="#3F3D56"/>
<path d="M229.521 160.557H133.742V220.523H229.521V160.557Z" fill="#6C63FF"/>
<path d="M143.601 200.751C149.794 198.269 156.264 197.372 162.691 198.102C169.345 198.884 175.778 201.633 182.349 203.14C188.392 204.529 194.505 205.257 200.631 205.318C205.923 205.367 212.402 205.944 217.088 201.956C217.714 201.424 217.14 200.058 216.511 200.593C213.787 202.911 210.677 203.285 207.55 203.518C204.398 203.753 201.241 203.806 198.081 203.678C191.695 203.423 185.336 202.432 179.07 200.716C173.148 199.09 167.309 196.856 161.254 196.383C155.195 195.933 149.124 196.896 143.297 199.229C143.155 199.291 143.036 199.425 142.965 199.605C142.894 199.785 142.876 199.995 142.916 200.193C142.955 200.39 143.049 200.559 143.176 200.663C143.304 200.767 143.456 200.799 143.601 200.751V200.751Z" fill="#F2F2F2"/>
<path d="M143.601 184.445C149.794 181.963 156.264 181.065 162.691 181.796C169.345 182.578 175.778 185.327 182.349 186.834C188.392 188.222 194.505 188.951 200.631 189.011C205.923 189.061 212.402 189.638 217.088 185.65C217.714 185.117 217.14 183.752 216.511 184.287C213.787 186.605 210.677 186.979 207.55 187.212C204.398 187.447 201.241 187.5 198.081 187.371C191.695 187.117 185.336 186.126 179.07 184.409C173.148 182.784 167.309 180.55 161.254 180.076C155.195 179.627 149.124 180.589 143.297 182.923C143.155 182.984 143.036 183.119 142.965 183.299C142.894 183.478 142.876 183.689 142.916 183.886C142.955 184.084 143.049 184.252 143.176 184.356C143.304 184.461 143.456 184.492 143.601 184.445V184.445Z" fill="#F2F2F2"/>
<path opacity="0.2" d="M260.239 323.678V386.337C260.239 387.806 260.03 389.261 259.622 390.619C259.214 391.976 258.616 393.21 257.862 394.249C257.109 395.288 256.214 396.112 255.229 396.674C254.244 397.236 253.189 397.525 252.123 397.525H190.748L260.239 323.678Z" fill="black"/>
<path opacity="0.2" d="M260.239 85.7427V145.608L179.216 74.5544H252.123C253.189 74.5542 254.244 74.8434 255.229 75.4055C256.214 75.9677 257.109 76.7918 257.862 77.8308C258.616 78.8698 259.214 80.1033 259.622 81.4608C260.03 82.8183 260.239 84.2733 260.239 85.7427V85.7427Z" fill="black"/>
<path d="M281.079 209.856H280.316V397.984H281.079V209.856Z" fill="#3F3D56"/>
<path d="M280.845 381.862C289.064 381.862 295.727 360.902 295.727 335.047C295.727 309.192 289.064 288.232 280.845 288.232C272.626 288.232 265.963 309.192 265.963 335.047C265.963 360.902 272.626 381.862 280.845 381.862Z" fill="#3F3D56"/>
<path d="M280.845 275.082C289.064 275.082 295.727 254.122 295.727 228.267C295.727 202.411 289.064 181.452 280.845 181.452C272.626 181.452 265.963 202.411 265.963 228.267C265.963 254.122 272.626 275.082 280.845 275.082Z" fill="#3F3D56"/>
<path d="M281.211 190.019L280.48 189.717C280.526 189.504 285.012 168.31 277.645 154.666C273.484 146.96 266.344 143.053 256.423 143.053V142.001C266.6 142.001 273.947 146.052 278.26 154.042C285.855 168.113 281.258 189.802 281.211 190.019Z" fill="#3F3D56"/>
<path d="M256.423 155.677C261.692 155.677 265.963 149.789 265.963 142.527C265.963 135.264 261.692 129.376 256.423 129.376C251.155 129.376 246.884 135.264 246.884 142.527C246.884 149.789 251.155 155.677 256.423 155.677Z" fill="#6C63FF"/>
<path d="M256.337 146.175C257.951 146.175 259.259 144.372 259.259 142.148C259.259 139.923 257.951 138.12 256.337 138.12C254.724 138.12 253.416 139.923 253.416 142.148C253.416 144.372 254.724 146.175 256.337 146.175Z" fill="#D0CDE1"/>
<path d="M362.682 145.657L332.183 153.794V120.566L360.223 121.923L362.682 145.657Z" fill="#2F2E41"/>
<path d="M362.928 197.532L361.945 211.772L367.356 253.137C367.356 253.137 367.356 280.939 372.275 276.87C377.194 272.802 372.767 253.137 372.767 253.137V209.738L371.783 197.532H362.928Z" fill="#A0616A"/>
<path d="M318.163 199.566L317.671 209.738L303.537 258.141C303.537 258.141 292.291 272.372 298.832 278.69C305.373 285.008 309.308 263.308 309.308 263.308L324.558 221.944L326.034 199.566L318.163 199.566Z" fill="#A0616A"/>
<path d="M310.784 291.789L311.768 318.913C311.768 318.913 307.832 346.037 312.26 369.093L314.719 393.505L321.606 392.149L324.066 360.956C324.066 360.956 325.542 333.831 325.05 330.441L328.493 297.892L310.784 291.789Z" fill="#A0616A"/>
<path d="M343.251 299.926L351.122 337.222C351.122 337.222 352.106 353.497 358.009 369.093C363.912 384.69 364.896 392.827 364.896 392.827L372.767 391.471L369.815 360.956C369.815 360.956 366.372 326.372 363.42 322.304L360.469 300.604L343.251 299.926Z" fill="#A0616A"/>
<path d="M344.235 142.909C350.755 142.909 356.041 135.623 356.041 126.635C356.041 117.646 350.755 110.36 344.235 110.36C337.715 110.36 332.429 117.646 332.429 126.635C332.429 135.623 337.715 142.909 344.235 142.909Z" fill="#A0616A"/>
<path d="M339.808 139.214C339.808 139.214 344.235 151.42 339.808 154.811C335.38 158.201 333.413 159.558 333.413 159.558C333.413 159.558 327.51 190.073 340.792 187.36C354.074 184.648 362.928 152.777 362.928 152.777C362.928 152.777 354.074 149.386 352.106 135.146L339.808 139.214Z" fill="#A0616A"/>
<path d="M336.487 173.883C335.656 173.161 334.973 172.155 334.506 170.963C334.039 169.771 333.803 168.433 333.821 167.078C333.813 164.639 334.376 162.262 335.427 160.3L337.306 156.709C337.306 156.709 328.002 153.455 321.606 167.695C315.211 181.935 306.357 201.6 314.228 203.635C322.098 205.669 324.558 205.669 324.558 205.669C324.558 205.669 324.066 213.806 318.655 221.265C313.244 228.725 290.615 285.008 301.437 291.789C312.26 298.57 364.404 313.488 366.372 302.638C368.34 291.789 356.533 223.978 356.533 223.978L360.469 202.278C360.469 202.278 391.46 203.635 387.525 194.819C383.589 186.004 376.702 152.098 363.912 152.098H361.634C361.634 152.098 351.412 168.489 344.148 174.065C342.98 175 341.649 175.476 340.299 175.444C338.949 175.412 337.631 174.872 336.487 173.883V173.883Z" fill="#2F2E41"/>
<path d="M363.912 391.471L362.436 404.355L361.945 420.629L365.388 421.307L366.372 412.492L368.34 426.732C368.34 426.732 371.783 434.191 377.686 432.835C383.589 431.479 376.702 415.204 376.702 415.204L373.751 390.114L363.912 391.471Z" fill="#2F2E41"/>
<path d="M323.082 390.114L324.558 402.998L325.05 419.273L321.606 419.951L320.623 411.136L318.655 425.376C318.655 425.376 315.211 432.835 309.308 431.479C303.405 430.123 310.292 413.848 310.292 413.848L313.244 388.758L323.082 390.114Z" fill="#2F2E41"/>
<path d="M339.562 184.309C340.649 184.309 341.53 183.094 341.53 181.596C341.53 180.098 340.649 178.884 339.562 178.884C338.475 178.884 337.594 180.098 337.594 181.596C337.594 183.094 338.475 184.309 339.562 184.309Z" fill="#6C63FF"/>
<path d="M337.348 202.278C338.435 202.278 339.316 201.064 339.316 199.566C339.316 198.068 338.435 196.854 337.348 196.854C336.261 196.854 335.38 198.068 335.38 199.566C335.38 201.064 336.261 202.278 337.348 202.278Z" fill="#6C63FF"/>
<path d="M335.38 220.587C336.467 220.587 337.348 219.373 337.348 217.875C337.348 216.377 336.467 215.163 335.38 215.163C334.294 215.163 333.413 216.377 333.413 217.875C333.413 219.373 334.294 220.587 335.38 220.587Z" fill="#6C63FF"/>
<path d="M334.888 239.574C335.975 239.574 336.856 238.36 336.856 236.862C336.856 235.364 335.975 234.15 334.888 234.15C333.802 234.15 332.921 235.364 332.921 236.862C332.921 238.36 333.802 239.574 334.888 239.574Z" fill="#6C63FF"/>
<path d="M331.937 255.849C333.024 255.849 333.905 254.635 333.905 253.137C333.905 251.639 333.024 250.424 331.937 250.424C330.85 250.424 329.969 251.639 329.969 253.137C329.969 254.635 330.85 255.849 331.937 255.849Z" fill="#6C63FF"/>
<path d="M330.461 274.158C331.548 274.158 332.429 272.943 332.429 271.445C332.429 269.947 331.548 268.733 330.461 268.733C329.374 268.733 328.493 269.947 328.493 271.445C328.493 272.943 329.374 274.158 330.461 274.158Z" fill="#6C63FF"/>
<path d="M338.973 105.894C335.705 105.118 332.125 107.675 331.106 111.511C330.779 112.743 330.688 114.072 330.213 115.231C329.704 116.473 328.801 117.406 328.142 118.54C327.584 119.487 327.204 120.61 327.038 121.808C326.872 123.007 326.924 124.244 327.19 125.407C327.509 126.746 328.115 127.992 328.249 129.375C328.29 129.666 328.271 129.965 328.195 130.242C328.063 130.563 327.878 130.837 327.654 131.041C326.591 132.194 325.567 133.397 324.582 134.65C323.578 135.928 322.547 137.581 322.924 139.283C323.077 139.82 323.274 140.332 323.51 140.809C323.972 141.915 324.214 143.17 324.212 144.446C324.21 145.723 323.964 146.976 323.499 148.08C323.066 149.101 322.455 150.005 322.067 151.053C323.723 150.475 325.19 149.149 326.235 147.285C325.339 150.293 322.196 151.431 320.869 154.196C321.779 154.202 322.676 153.895 323.478 153.303C322.807 153.91 322.179 154.606 321.605 155.38C322.913 154.967 324.124 154.101 325.122 152.865C324.229 153.767 323.598 155.078 323.342 156.563C327.018 156.651 330.621 155.442 334.162 154.242L340.104 152.23C340.497 152.157 340.863 151.914 341.149 151.535C341.321 151.175 341.388 150.737 341.334 150.311C341.209 148.236 340.39 146.32 339.489 144.547C338.808 143.207 338.076 141.918 337.297 140.683C336.486 139.397 335.612 138.148 335.032 136.69C333.764 133.501 334.059 129.767 334.382 126.25C334.478 125.216 334.603 124.1 335.201 123.351C335.437 123.056 335.733 122.839 335.98 122.556C336.827 121.586 336.962 120.049 337.223 118.674C337.617 116.655 338.353 114.794 339.371 113.246C339.745 112.671 340.243 112.087 340.847 112.126C341.986 112.199 342.838 113.27 343.435 114.445C343.98 115.644 344.444 116.909 344.821 118.224C345.884 121.407 347.628 124.619 350.353 125.577C351.403 125.946 352.557 125.962 353.5 126.63C353.942 126.964 354.33 127.42 354.637 127.97C354.945 128.52 355.167 129.152 355.289 129.826C355.499 131.12 355.556 132.453 355.457 133.772C355.276 138.325 354.93 142.861 354.419 147.365L368.558 147.612C368.307 145.013 367.621 142.529 366.555 140.357C368.209 140.597 369.875 140.659 371.537 140.539C370.94 138.986 369.226 138.794 367.946 138.063C367.774 137.983 367.62 137.845 367.498 137.66C367.385 137.403 367.339 137.1 367.369 136.801L367.434 133.786C367.493 133.084 367.416 132.373 367.21 131.725C366.957 131.08 366.463 130.614 366.182 129.986C365.495 128.448 366.257 126.468 365.757 124.828C365.34 123.457 364.173 122.688 363.155 121.902C361.752 120.819 360.442 119.429 359.757 117.594C359.436 116.735 359.263 115.808 359.007 114.918C358.161 111.972 356.405 109.486 354.302 107.683C352.12 105.912 349.745 104.641 347.268 103.919C345.537 103.361 343.713 102.967 341.961 103.419C340.209 103.87 338.54 105.334 338.077 107.428" fill="#2F2E41"/>
</svg>
