<svg width="535" height="321" viewBox="0 0 535 321" fill="none" xmlns="http://www.w3.org/2000/svg">
<path d="M146.736 320.579L132.841 281.671C132.841 281.671 148.126 289.314 148.821 299.041C148.821 299.041 145.347 250.407 138.399 239.985C138.399 239.985 149.516 241.375 162.021 295.567C162.021 295.567 164.106 233.037 145.347 214.973C145.347 214.973 171.053 235.816 173.138 280.977V320.579H146.736Z" fill="#F2F2F2"/>
<path d="M407.329 320.579L403.988 311.224C403.988 311.224 407.663 313.061 407.83 315.4C407.83 315.4 406.995 303.707 405.325 301.201C405.325 301.201 407.997 301.535 411.004 314.565C411.004 314.565 411.505 299.53 406.995 295.187C406.995 295.187 413.176 300.198 413.677 311.057V320.579L407.329 320.579Z" fill="#F2F2F2"/>
<path d="M345.433 240.118C379.168 240.118 406.516 212.77 406.516 179.035C406.516 145.3 379.168 117.953 345.433 117.953C311.698 117.953 284.35 145.3 284.35 179.035C284.35 212.77 311.698 240.118 345.433 240.118Z" fill="#F2F2F2"/>
<path d="M144.071 4.63385H0V84.6732H144.071V4.63385Z" fill="#F2F2F2"/>
<path d="M339.535 4.63385H195.465V84.6732H339.535V4.63385Z" fill="#F2F2F2"/>
<path d="M535 4.63385H390.929V84.6732H535V4.63385Z" fill="#F2F2F2"/>
<path d="M370.349 320.798C370.252 320.64 367.973 316.834 367.183 308.931C366.458 301.68 366.924 289.457 373.263 272.408C385.271 240.11 370.495 214.05 370.344 213.79L371.073 213.367C371.111 213.433 374.924 220.077 377.176 230.657C380.153 244.684 379.069 259.269 374.052 272.702C362.065 304.945 370.977 320.209 371.068 320.359L370.349 320.798Z" fill="#3F3D56"/>
<path d="M365.654 211.894C368.678 211.894 371.13 209.442 371.13 206.417C371.13 203.393 368.678 200.941 365.654 200.941C362.629 200.941 360.177 203.393 360.177 206.417C360.177 209.442 362.629 211.894 365.654 211.894Z" fill="#6C63FF"/>
<path d="M382.925 232.114C385.95 232.114 388.402 229.662 388.402 226.638C388.402 223.613 385.95 221.161 382.925 221.161C379.901 221.161 377.449 223.613 377.449 226.638C377.449 229.662 379.901 232.114 382.925 232.114Z" fill="#3F3D56"/>
<path d="M371.13 245.594C374.154 245.594 376.606 243.143 376.606 240.118C376.606 237.094 374.154 234.642 371.13 234.642C368.105 234.642 365.654 237.094 365.654 240.118C365.654 243.143 368.105 245.594 371.13 245.594Z" fill="#6C63FF"/>
<path d="M385.453 256.969C388.477 256.969 390.929 254.517 390.929 251.492C390.929 248.468 388.477 246.016 385.453 246.016C382.428 246.016 379.976 248.468 379.976 251.492C379.976 254.517 382.428 256.969 385.453 256.969Z" fill="#6C63FF"/>
<path d="M366.917 274.661C369.942 274.661 372.394 272.21 372.394 269.185C372.394 266.161 369.942 263.709 366.917 263.709C363.893 263.709 361.441 266.161 361.441 269.185C361.441 272.21 363.893 274.661 366.917 274.661Z" fill="#3F3D56"/>
<path d="M373.657 321C373.657 321 368.181 307.52 384.61 297.409L373.657 321Z" fill="#3F3D56"/>
<path d="M366.922 320.755C366.922 320.755 364.43 306.42 345.14 306.543L366.922 320.755Z" fill="#3F3D56"/>
<path d="M143.86 0H0.210632V7.16142H143.86V0Z" fill="#3F3D56"/>
<path d="M339.746 0H195.675V7.16142H339.746V0Z" fill="#3F3D56"/>
<path d="M534.789 0H391.14V7.16142H534.789V0Z" fill="#3F3D56"/>
<path d="M37.0709 18.3248H10.9528V36.8602H37.0709V18.3248Z" fill="white"/>
<path d="M133.118 18.3248H61.0827V20.4311H133.118V18.3248Z" fill="white"/>
<path d="M133.118 26.75H61.0827V28.8563H133.118V26.75Z" fill="white"/>
<path d="M133.118 35.1752H61.0827V37.2815H133.118V35.1752Z" fill="white"/>
<path d="M232.535 18.3248H206.417V36.8602H232.535V18.3248Z" fill="white"/>
<path d="M328.583 18.3248H256.547V20.4311H328.583V18.3248Z" fill="white"/>
<path d="M328.583 26.75H256.547V28.8563H328.583V26.75Z" fill="white"/>
<path d="M328.583 35.1752H256.547V37.2815H328.583V35.1752Z" fill="white"/>
<path d="M428 18.3248H401.882V36.8602H428V18.3248Z" fill="white"/>
<path d="M524.047 18.3248H452.012V20.4311H524.047V18.3248Z" fill="white"/>
<path d="M524.047 26.75H452.012V28.8563H524.047V26.75Z" fill="white"/>
<path d="M524.047 35.1752H452.012V37.2815H524.047V35.1752Z" fill="white"/>
<path d="M24.0118 36.2284C28.6649 36.2284 32.437 32.4563 32.437 27.8032C32.437 23.15 28.6649 19.378 24.0118 19.378C19.3587 19.378 15.5866 23.15 15.5866 27.8032C15.5866 32.4563 19.3587 36.2284 24.0118 36.2284Z" fill="#6C63FF"/>
<path d="M414.941 36.2284C419.594 36.2284 423.366 32.4563 423.366 27.8032C423.366 23.15 419.594 19.378 414.941 19.378C410.288 19.378 406.516 23.15 406.516 27.8032C406.516 32.4563 410.288 36.2284 414.941 36.2284Z" fill="#6C63FF"/>
<path d="M67.3053 84.6732H66.4628V87.2008H67.3053V84.6732Z" fill="#3F3D56"/>
<path d="M67.3053 188.303H66.4628V183.248H67.3053V188.303ZM67.3053 178.193H66.4628V173.138H67.3053V178.193ZM67.3053 168.083H66.4628V163.028H67.3053V168.083ZM67.3053 157.972H66.4628V152.917H67.3053V157.972ZM67.3053 147.862H66.4628V142.807H67.3053V147.862ZM67.3053 137.752H66.4628V132.697H67.3053V137.752ZM67.3053 127.642H66.4628V122.587H67.3053V127.642ZM67.3053 117.532H66.4628V112.476H67.3053V117.532ZM67.3053 107.421H66.4628V102.366H67.3053V107.421ZM67.3053 97.311H66.4628V92.2559H67.3053V97.311Z" fill="#3F3D56"/>
<path d="M69.4116 196.307H66.4628V193.358H67.3051V195.464H69.4116V196.307Z" fill="#3F3D56"/>
<path d="M455.359 196.307H450.281V195.465H455.359V196.307ZM445.203 196.307H440.124V195.465H445.203V196.307ZM435.046 196.307H429.968V195.465H435.046V196.307ZM424.89 196.307H419.811V195.465H424.89V196.307ZM414.733 196.307H409.655V195.465H414.733V196.307ZM404.576 196.307H399.498V195.465H404.576V196.307ZM394.42 196.307H389.342V195.465H394.42V196.307ZM384.263 196.307H379.185V195.465H384.263V196.307ZM374.107 196.307H369.029V195.465H374.107V196.307ZM363.95 196.307H358.872V195.465H363.95L363.95 196.307ZM353.794 196.307H348.716V195.465H353.794V196.307ZM343.637 196.307H338.559V195.465H343.637V196.307ZM333.481 196.307H328.403V195.465H333.481V196.307ZM323.324 196.307H318.246V195.465H323.324V196.307ZM313.168 196.307H308.089V195.465H313.168V196.307ZM303.011 196.307H297.933V195.465H303.011V196.307ZM292.855 196.307H287.776V195.465H292.855V196.307ZM282.698 196.307H277.62V195.465H282.698V196.307ZM272.542 196.307H267.464V195.465H272.542V196.307ZM262.385 196.307H257.307V195.465H262.385V196.307ZM252.229 196.307H247.151V195.465H252.229V196.307ZM242.072 196.307H236.994V195.465H242.072V196.307ZM231.916 196.307H226.838V195.465H231.916V196.307ZM221.759 196.307H216.681V195.465H221.759V196.307ZM211.603 196.307H206.525V195.465H211.603V196.307ZM201.446 196.307H196.368V195.465H201.446V196.307ZM191.29 196.307H186.212V195.465H191.29V196.307ZM181.133 196.307H176.055V195.465H181.133V196.307ZM170.977 196.307H165.898V195.465H170.977V196.307ZM160.82 196.307H155.742V195.465H160.82V196.307ZM150.664 196.307H145.585V195.465H150.664V196.307ZM140.507 196.307H135.429V195.465H140.507V196.307ZM130.351 196.307H125.273V195.465H130.351V196.307ZM120.194 196.307H115.116V195.465H120.194V196.307ZM110.038 196.307H104.96V195.465H110.038V196.307ZM99.8812 196.307H94.803V195.465H99.8812V196.307ZM89.7247 196.307H84.6465V195.465H89.7247V196.307ZM79.5682 196.307H74.49V195.465H79.5682L79.5682 196.307Z" fill="#3F3D56"/>
<path d="M463.386 196.307H460.437V195.464H462.543V193.358H463.386V196.307Z" fill="#3F3D56"/>
<path d="M463.386 188.303H462.543V183.248H463.386V188.303ZM463.386 178.193H462.543V173.138H463.386V178.193ZM463.386 168.083H462.543V163.028H463.386V168.083ZM463.386 157.972H462.543V152.917H463.386V157.972ZM463.386 147.862H462.543V142.807H463.386V147.862ZM463.386 137.752H462.543V132.697H463.386V137.752ZM463.386 127.642H462.543V122.587H463.386V127.642ZM463.386 117.532H462.543V112.476H463.386V117.532ZM463.386 107.421H462.543V102.366H463.386V107.421ZM463.386 97.311H462.543V92.2559H463.386V97.311Z" fill="#3F3D56"/>
<path d="M463.386 84.6732H462.543V87.2008H463.386V84.6732Z" fill="#3F3D56"/>
<path d="M339.535 170.61H195.465V320.579H339.535V170.61Z" fill="#3F3D56"/>
<path d="M232.535 190.199H206.417V208.734H232.535V190.199Z" fill="white"/>
<path d="M328.583 190.199H256.547V192.305H328.583V190.199Z" fill="white"/>
<path d="M328.583 198.624H256.547V200.73H328.583V198.624Z" fill="white"/>
<path d="M328.583 207.049H256.547V209.156H328.583V207.049Z" fill="white"/>
<path d="M232.535 256.969H206.417V275.504H232.535V256.969Z" fill="white"/>
<path d="M328.583 256.969H256.547V259.075H328.583V256.969Z" fill="white"/>
<path d="M328.583 265.394H256.547V267.5H328.583V265.394Z" fill="white"/>
<path d="M328.583 273.819H256.547V275.925H328.583V273.819Z" fill="white"/>
<path d="M219.587 204.154L210.647 192.234L212.765 190.646L220.048 200.357L238.612 185.322L240.288 187.371L219.587 204.154Z" fill="#6C63FF"/>
<path d="M219.587 270.292L210.647 258.372L212.765 256.784L220.048 266.495L238.612 251.459L240.288 253.509L219.587 270.292Z" fill="#6C63FF"/>
<path d="M524.047 320.157H3.79132V321H524.047V320.157Z" fill="#3F3D56"/>
<path d="M285.634 89.3071C285.634 89.3071 299.536 83.2496 306.065 89.6484C312.595 96.0473 288.583 93.941 285.634 89.3071Z" fill="#3F3D56"/>
<path d="M309.639 60.5791C304.967 52.6854 295.724 52.3175 295.724 52.3175C295.724 52.3175 286.718 51.1658 280.94 63.1881C275.555 74.3938 268.123 85.2132 279.744 87.8364L281.843 81.3032L283.143 88.3227C284.798 88.4417 286.457 88.4701 288.115 88.4077C300.56 88.0059 312.412 88.5253 312.03 84.0595C311.523 78.1229 314.134 68.1745 309.639 60.5791Z" fill="#2F2E41"/>
<path d="M316.176 203.679C316.176 203.679 310.278 214.632 306.487 214.632C302.695 214.632 303.117 221.793 303.959 223.478C304.802 225.163 306.908 228.955 303.538 234.431C302.361 236.344 302.571 238.514 303.344 240.528C305.508 246.171 313.927 244.461 313.659 238.423C313.656 238.357 313.652 238.29 313.648 238.222C313.227 231.482 316.597 220.951 319.967 218.423C323.337 215.896 326.286 209.156 326.286 209.156L316.176 203.679Z" fill="#FFB8B8"/>
<path d="M275.735 201.152C275.735 201.152 281.632 212.104 285.424 212.104C289.215 212.104 288.794 219.266 287.951 220.951C287.109 222.636 285.002 226.427 288.372 231.904C289.55 233.816 289.339 235.986 288.567 238C286.402 243.643 277.983 241.934 278.252 235.896C278.254 235.829 278.258 235.762 278.262 235.695C278.684 228.955 275.313 218.423 271.943 215.896C268.573 213.368 265.624 206.628 265.624 206.628L275.735 201.152Z" fill="#FFB8B8"/>
<path d="M280.369 147.23L277.841 152.707C277.841 152.707 240.77 164.923 244.14 179.246C247.51 193.569 263.939 215.896 266.467 215.053C268.995 214.211 282.475 211.683 282.896 204.522C283.317 197.36 273.207 184.722 273.207 184.722L287.109 172.085L307.338 171.663L324.601 184.722C324.601 184.722 306.487 200.73 314.491 207.049C322.495 213.368 334.29 217.581 335.975 215.053C337.66 212.526 356.617 175.033 353.668 171.663C350.719 168.293 320.809 155.656 320.809 155.656L312.806 144.282L281.632 142.596L280.369 147.23Z" fill="#2F2E41"/>
<path d="M287.951 77.7224C287.951 77.7224 290.058 91.624 285.845 93.3091C281.632 94.9941 294.27 102.156 294.27 102.156H301.432L306.065 92.4665C306.065 92.4665 301.853 84.8839 304.38 77.7224C306.908 70.561 287.951 77.7224 287.951 77.7224Z" fill="#FFB8B8"/>
<path opacity="0.1" d="M287.951 77.7224C287.951 77.7224 290.058 91.624 285.845 93.3091C281.632 94.9941 294.27 102.156 294.27 102.156H301.432L306.065 92.4665C306.065 92.4665 301.853 84.8839 304.38 77.7224C306.908 70.561 287.951 77.7224 287.951 77.7224Z" fill="black"/>
<path d="M285.002 89.5177C285.002 89.5177 289.636 94.5728 290.479 95.4153C291.321 96.2579 295.113 100.892 303.117 94.1516C311.121 87.4114 311.963 95.4153 311.963 95.4153V145.967C311.963 145.967 305.223 143.018 299.747 145.967C294.27 148.915 282.896 145.124 282.896 145.124L280.79 92.8878L285.002 89.5177Z" fill="white"/>
<path d="M288.097 89.5177C288.097 89.5177 284.16 87.8327 280.79 89.5177C277.42 91.2027 265.624 99.6279 266.467 103.419C267.31 107.211 278.262 133.75 270.68 146.388C263.097 159.026 261.833 162.396 261.833 162.396L280.369 152.707C280.369 152.707 294.691 143.86 293.428 138.384C292.164 132.907 288.097 89.5177 288.097 89.5177Z" fill="#6C63FF"/>
<path d="M304.807 89.5177C304.807 89.5177 313.648 90.3602 314.069 91.2027C314.491 92.0453 327.339 95.626 326.497 99.4173C325.654 103.209 314.069 137.12 319.124 143.439C324.18 149.758 332.605 158.604 329.656 159.447C326.707 160.289 321.652 158.183 316.597 159.447C311.542 160.711 299.747 150.179 301.01 138.805C302.274 127.431 301.02 92.4665 304.807 89.5177Z" fill="#6C63FF"/>
<path d="M283.739 169.978V174.191C283.739 174.191 281.632 183.88 288.373 183.459C295.113 183.037 290.9 171.663 290.9 171.663L290.479 167.872L283.739 169.978Z" fill="#FFB8B8"/>
<path d="M302.695 170.4C302.695 170.4 298.061 180.089 302.695 180.931C307.329 181.774 310.699 175.455 310.699 173.77C310.699 172.085 302.695 170.4 302.695 170.4Z" fill="#FFB8B8"/>
<path d="M308.804 73.7205C309.269 73.7205 309.646 72.9661 309.646 72.0354C309.646 71.1048 309.269 70.3504 308.804 70.3504C308.338 70.3504 307.961 71.1048 307.961 72.0354C307.961 72.9661 308.338 73.7205 308.804 73.7205Z" fill="#FFB8B8"/>
<path d="M283.949 73.7205C284.415 73.7205 284.792 72.9661 284.792 72.0354C284.792 71.1048 284.415 70.3504 283.949 70.3504C283.484 70.3504 283.107 71.1048 283.107 72.0354C283.107 72.9661 283.484 73.7205 283.949 73.7205Z" fill="#FFB8B8"/>
<path d="M316.176 94.9941C316.176 94.9941 326.707 94.9941 326.286 99.2067C325.865 103.419 311.963 175.876 311.963 175.876C311.963 175.876 306.065 170.4 301.01 171.663L316.176 94.9941Z" fill="#6C63FF"/>
<path d="M275.313 96.2579C275.313 96.2579 264.782 98.3642 264.782 104.683C264.782 111.002 279.947 171.663 282.054 171.663C284.16 171.663 292.164 170.4 292.164 168.293C292.164 166.187 275.313 96.2579 275.313 96.2579Z" fill="#6C63FF"/>
<path opacity="0.2" d="M277.63 108.685L287.109 145.752C287.109 145.752 282.686 113.319 277.63 108.685Z" fill="black"/>
<path opacity="0.2" d="M314.498 103.477L304.912 151.94C304.912 151.94 307.975 106.272 314.498 103.477Z" fill="black"/>
<path d="M296.376 84.4626C303.123 84.4626 308.593 78.9931 308.593 72.2461C308.593 65.4991 303.123 60.0295 296.376 60.0295C289.629 60.0295 284.16 65.4991 284.16 72.2461C284.16 78.9931 289.629 84.4626 296.376 84.4626Z" fill="#FFB8B8"/>
<path d="M307.573 59.8183L298.442 55.0352L285.832 56.9917L283.223 68.5146L289.718 68.265L291.532 64.0316V68.1952L294.529 68.0798L296.268 61.3399L297.355 68.5146L308.008 68.2975L307.573 59.8183Z" fill="#2F2E41"/>
</svg>
