<svg width="396" height="337" viewBox="0 0 396 337" fill="none" xmlns="http://www.w3.org/2000/svg">
<g opacity="0.1">
<path opacity="0.1" d="M234.858 6.41009C231.189 9.41874 229.549 14.187 228.118 18.7078C224.909 28.8519 221.908 39.064 219.117 49.3442C215.047 64.2775 211.35 79.5407 203.898 93.1267C196.447 106.713 185.59 117.974 174.85 129.101L136.164 169.164C124.21 181.548 111.458 195.841 111.686 213.044C111.882 227.97 122.326 241.21 135.107 248.917C147.887 256.623 162.821 259.777 177.438 262.809C184.858 264.349 192.735 265.861 199.852 263.3C208.401 260.228 213.973 252 221.787 247.369C235.805 239.054 253.568 243.732 269.273 248.092C284.979 252.452 303.484 255.759 316.221 245.602C334.703 230.861 326.736 201.163 334.99 179.026C342.823 158.017 364.483 145.935 378.698 128.59C410.455 89.851 396.57 36.0409 352.745 14.3206C338.384 7.22313 324.227 7.58841 308.651 6.469C289.23 5.07858 251.597 -7.32521 234.858 6.41009Z" fill="#6C63FF"/>
</g>
<g opacity="0.5">
<path opacity="0.5" d="M115.189 230.492C115.189 230.492 50.2275 197.656 77.9896 124.313C105.752 50.9703 5.23783 25.5303 5.23783 25.5303C5.23783 25.5303 -14.4513 96.9445 22.54 144.502C59.5313 192.059 73.8017 271.014 115.189 230.492Z" fill="#6C63FF"/>
<path opacity="0.5" d="M5.23785 25.5303C5.23785 25.5303 32.6461 72.9656 46.4761 134.67C60.306 196.375 82.8225 247.294 114.855 229.329" stroke="white" stroke-miterlimit="10"/>
</g>
<g opacity="0.5">
<path opacity="0.5" d="M101.234 242.487C101.234 242.487 75.2567 205.24 109.719 169.337C144.182 133.433 97.2029 90.8525 97.2029 90.8525C97.2029 90.8525 67.5729 127.82 74.6471 166.143C81.7214 204.466 68.2611 255.185 101.234 242.487Z" fill="#6C63FF"/>
<path opacity="0.5" d="M97.2069 90.8525C97.2069 90.8525 99.173 126.485 90.0894 166.862C81.0057 207.239 79.421 243.602 101.363 241.713" stroke="white" stroke-miterlimit="10"/>
</g>
<g opacity="0.1">
<path opacity="0.1" d="M24.6596 301.203C25.1157 304.003 26.7397 306.136 28.2812 308.092L46.6255 331.32C48.1001 333.19 49.6848 335.134 51.6667 335.641C55.8074 336.737 59.1381 331.427 62.6772 328.32C75.2606 317.275 92.4566 334.09 106.68 327.66C112.37 325.087 116.979 318.976 122.779 316.906C138.134 311.407 151.146 335.7 167.002 336.937C172.208 337.33 177.316 335.193 182.29 333.068L215.471 318.881C217.776 317.895 220.119 316.917 222.549 316.859C226.631 316.788 230.434 319.412 234.276 321.301C249.741 328.913 266.914 324.804 282.8 319.038C298.687 313.273 314.688 305.853 331.109 307.082C335.383 307.404 341.03 307.133 342.198 301.533C342.894 298.202 333.5 301.694 331.325 299.899C329.151 298.104 334.326 290.613 331.789 290.295C317.031 288.449 301.994 288.398 287.57 293.045C280.099 295.448 272.749 299.109 265.077 299.859C257.079 300.645 249.124 298.225 241.271 296.026C221.385 290.456 201.162 286.206 180.859 287.071C144.776 288.642 109.236 306.419 73.3338 301.265C62.6671 299.69 52.3632 296.243 42.8976 291.085C38.053 288.473 38.2693 297.723 33.3264 300.837C31.7181 301.851 27.5066 292.401 26.2482 294.219C25.5314 295.219 25.0216 296.352 24.7488 297.551C24.476 298.75 24.4457 299.992 24.6596 301.203V301.203Z" fill="#6C63FF"/>
</g>
<path d="M334.105 256.415L276.753 181.395C272.274 160.334 265.549 160.334 265.549 160.334C219.848 154.191 207.304 146.293 207.304 146.293L197.08 142.294L196.227 141.791C196.187 141.567 196.144 141.344 196.105 141.112C196.065 140.88 196.026 140.574 195.995 140.303C207.161 133.599 215.218 122.755 218.409 110.138C218.491 109.808 218.566 109.47 218.645 109.136C220.839 108.085 222.692 106.436 223.989 104.38C228.381 97.188 224.209 88.0835 224.303 79.7056C224.362 74.411 226.191 69.2225 225.982 63.9318C225.809 59.5013 224.221 55.2476 222.487 51.1549C221.645 49.1635 220.717 47.1289 219.105 45.656C214.83 41.7794 207.909 43.4408 202.42 41.5319C195.318 39.0614 192.011 31.363 187.906 25.1729C186.333 22.7848 183.47 20.2632 180.887 21.5711C177.855 23.103 178.677 28.3465 175.613 29.8194C173.757 30.711 171.488 29.5877 170.163 28.0323C168.838 26.4769 168.079 24.5248 166.774 22.9537C165.603 21.5943 164.087 20.576 162.385 20.0063C160.683 19.4366 158.858 19.3367 157.104 19.7173C156.408 19.8297 155.766 20.1582 155.268 20.656C154.288 21.795 154.902 23.4918 154.969 24.9765C155.201 29.9765 149.07 32.7534 144.005 33.2837C138.941 33.8139 132.971 33.8767 129.94 37.9027C128.335 40.0354 127.993 42.8124 126.912 45.2397C124.403 50.8681 118.335 53.9514 113.003 57.1839C107.671 60.4165 102.181 65.1298 102.228 71.2727C102.276 77.1644 107.482 81.9366 108.398 87.7693C108.886 90.8604 108.127 94.0536 108.733 97.1291C109.845 102.769 115.123 106.556 119.991 109.757C120.321 109.973 120.655 110.189 120.997 110.393C121.084 110.739 121.17 111.08 121.265 111.422C123.134 117.999 126.348 124.117 130.704 129.39C135.06 134.663 140.464 138.976 146.573 142.058C146.652 142.388 146.727 142.722 146.801 143.064C147.033 144.117 147.25 145.212 147.442 146.336L147.293 146.375V146.265L90.6478 160.692C90.3068 160.569 89.9429 160.523 89.5821 160.558C87.2621 160.37 80.0069 162.868 71.5407 196.744L35.2533 260.802C35.2533 260.802 14.1957 280.986 30.3261 298.115C38.5485 306.839 47.8209 308.948 54.9345 308.921C59.0655 308.979 63.1726 308.284 67.0539 306.87C67.0539 306.87 66.7629 306.423 66.3146 305.629L71.112 306.214C80.5496 316.694 96.6249 313.013 96.6249 313.013C96.6249 313.013 119.491 312.754 120.333 300.81L161.429 313.402L161.595 315.645H183.175L183.14 314.215L228.542 300.554C232.081 307.09 240.733 310.323 240.733 310.323C240.733 310.323 267.378 311.442 275.754 306.595C279.273 304.532 283.107 303.058 287.102 302.232L287.334 302.208L287.279 302.263L338.58 296.764C361.883 276.595 334.105 256.415 334.105 256.415ZM75.8819 274.254L74.7534 273.602C76.7699 272.833 78.8432 272.221 80.9546 271.772L90.9349 259.466L92.6611 271.603C86.9353 270.284 80.9206 271.234 75.8819 274.254V274.254ZM268.908 274.156C265.192 271.352 260.646 269.867 255.99 269.934L256.383 240.059C260.131 242.451 263.276 245.091 264.208 247.636C266.898 255.099 279.891 266.941 279.891 266.941L273.143 272.479L272.093 273.339C271.81 273.406 271.526 273.473 271.243 273.547L268.908 274.156Z" fill="url(#paint0_linear)"/>
<path d="M65.3866 307.149L75.8583 308.457L81.9652 278.386L70.184 271.411L54.9148 287.974L65.3866 307.149Z" fill="#EFB7B9"/>
<path opacity="0.03" d="M65.3866 307.149L75.8583 308.457L81.9652 278.386L70.184 271.411L54.9148 287.974L65.3866 307.149Z" fill="black"/>
<path d="M205.865 159.411L180.56 182.074C180.56 182.074 131.693 192.97 143.911 177.714C150.832 169.073 149.912 155.959 147.812 146.21C146.873 141.789 145.568 137.454 143.911 133.249C143.911 133.249 206.749 95.3498 198.024 124.117C195.436 132.648 195.074 139.227 195.841 144.254C197.674 156.179 205.865 159.411 205.865 159.411Z" fill="#EFB7B9"/>
<path opacity="0.1" d="M198.024 124.117C195.436 132.648 195.074 139.227 195.841 144.254C188.683 148.681 180.501 151.188 172.089 151.532C163.676 151.876 155.317 150.046 147.82 146.218C146.88 141.797 145.576 137.462 143.919 133.256C143.919 133.256 206.749 95.3498 198.024 124.117Z" fill="black"/>
<path d="M218.967 101.886C218.967 111.538 216.102 120.975 210.733 129.001C205.364 137.027 197.733 143.283 188.805 146.978C179.877 150.673 170.053 151.641 160.574 149.759C151.095 147.877 142.388 143.231 135.553 136.406C128.718 129.582 124.062 120.887 122.175 111.42C120.287 101.953 121.252 92.1396 124.947 83.2204C128.643 74.3012 134.903 66.6767 142.937 61.311C150.97 55.9454 160.416 53.0794 170.081 53.0755C176.505 53.0543 182.87 54.3021 188.809 56.7473C194.749 59.1924 200.146 62.7866 204.689 67.323C209.233 71.8594 212.833 77.2485 215.284 83.1801C217.734 89.1117 218.986 95.4688 218.967 101.886V101.886Z" fill="#EFB7B9"/>
<path d="M136.503 165.079V254.415L222.455 247.444L208.059 156.363L170.1 179.022L136.503 165.079Z" fill="#E1E7EF"/>
<path opacity="0.1" d="M183.187 219.989L173.62 192.97H174.013C184.048 182.074 179.683 175.539 179.683 175.539H165.755C156.888 181.823 163.042 189.965 165.13 192.31L160.954 219.989H183.187Z" fill="black"/>
<path d="M183.187 219.117L173.62 192.098H174.013C184.048 181.202 179.683 174.667 179.683 174.667H165.755C156.888 180.951 163.042 189.093 165.13 191.438L160.954 219.117H183.187Z" fill="#444053"/>
<path opacity="0.1" d="M195.959 145.798C195.959 145.798 193.206 158.539 174.029 175.535C174.029 175.535 179.927 177.498 180.792 193.186L187.992 203.005C187.992 203.005 193.663 182.522 203.698 175.55C213.733 168.579 203.698 150.275 203.698 150.275L195.959 145.798Z" fill="black"/>
<path d="M195.959 144.934C195.959 144.934 193.206 157.675 174.029 174.67C174.029 174.67 179.927 176.634 180.792 192.322L187.992 202.141C187.992 202.141 193.663 181.658 203.698 174.686C213.733 167.714 203.698 149.411 203.698 149.411L195.959 144.934Z" fill="#E1E7EF"/>
<path opacity="0.1" d="M170.081 175.535C170.081 175.535 161.823 182.074 161.374 192.534C160.926 202.993 156.577 202.993 156.577 202.993C156.577 202.993 145.669 169.439 142.181 166.387C138.693 163.335 148.472 150.464 148.472 150.464C148.472 150.464 153.958 168.563 170.081 175.535Z" fill="black"/>
<path d="M170.081 174.667C170.081 174.667 161.823 181.202 161.374 191.674C160.926 202.145 156.577 202.133 156.577 202.133C156.577 202.133 145.665 168.563 142.161 165.515C138.657 162.467 148.453 149.592 148.453 149.592C148.453 149.592 153.958 167.691 170.081 174.667Z" fill="#E1E7EF"/>
<path opacity="0.1" d="M195.405 145.032L206.313 149.392C206.313 149.392 218.531 157.247 263.033 163.339C263.033 163.339 269.576 163.339 273.941 184.258L329.78 258.779C329.78 258.779 356.83 278.811 334.145 298.873L284.204 304.321C284.204 304.321 313.001 276.866 269.372 275.994L277.433 269.235C277.433 269.235 264.779 257.451 262.164 250.059C259.549 242.667 238.176 234.372 238.176 234.372L240.795 297.126L201.512 303.221L195.849 186.45C195.576 180.942 195.893 175.421 196.793 169.981C198.271 161.124 199.832 147.094 195.405 145.032Z" fill="black"/>
<path d="M195.841 145.032L206.749 149.392C206.749 149.392 218.967 157.247 263.469 163.339C263.469 163.339 270.012 163.339 274.377 184.258L330.216 258.779C330.216 258.779 357.267 278.811 334.581 298.873L284.641 304.321C284.641 304.321 313.437 276.866 269.808 275.994L277.881 269.239C277.881 269.239 265.227 257.455 262.612 250.063C259.997 242.671 238.625 234.376 238.625 234.376L241.244 297.129L201.932 303.221L196.27 186.45C195.997 180.942 196.314 175.421 197.214 169.981C198.708 161.124 200.269 147.094 195.841 145.032Z" fill="#67647E"/>
<path opacity="0.1" d="M148.72 149.388L93.3099 163.787C93.3099 163.787 85.0206 158.559 74.9853 199.529L39.6456 263.159C39.6456 263.159 19.1386 283.19 34.8482 300.201C50.5578 317.212 70.1997 308.889 70.1997 308.889C70.1997 308.889 52.3116 281.002 83.7269 274.027L95.5238 259.211L148.752 265.311L147.411 188.61L148.901 179.671C150.513 170.008 150.513 160.146 148.901 150.483L148.72 149.388Z" fill="black"/>
<path d="M148.284 149.388L92.8735 163.787C92.8735 163.787 84.5841 158.559 74.5489 199.529L39.2091 263.158C39.2091 263.158 18.6864 283.19 34.4156 300.173C50.1449 317.157 69.7554 308.889 69.7554 308.889C69.7554 308.889 51.8673 281.002 83.2825 274.027L95.0795 259.211L148.307 265.311L146.974 188.61L148.453 179.67C150.065 170.008 150.065 160.146 148.453 150.483L148.284 149.388Z" fill="#67647E"/>
<path d="M93.7464 192.098L88.5085 196.018L167.481 216.065V208.221L93.7464 192.098Z" fill="#E4E6ED"/>
<path d="M246.454 190.79L251.688 194.714L167.481 216.065V208.221L246.454 190.79Z" fill="#E4E6ED"/>
<path d="M83.7112 192.098L157.01 209.093L162.243 315.429L98.1074 295.382L83.7112 192.098Z" fill="#6C63FF"/>
<path d="M255.18 192.098L177.08 209.965L181.441 316.737L253.87 294.51L255.18 192.098Z" fill="#6C63FF"/>
<path d="M154.391 209.093C154.391 209.093 167.186 216.949 180.639 209.093L183.258 317.609H162.247L154.391 209.093Z" fill="#6C63FF"/>
<path opacity="0.1" d="M154.391 209.093C154.391 209.093 167.186 216.949 180.639 209.093L183.258 317.609H162.247L154.391 209.093Z" fill="black"/>
<path d="M95.4924 190.79V193.842L167.481 208.221C167.481 208.221 130.832 194.71 95.4924 190.79Z" fill="#D8D9E5"/>
<path d="M245.145 189.046V192.098L167.481 208.221C167.481 208.221 209.797 192.97 245.145 189.046Z" fill="#D8D9E5"/>
<path d="M269.01 275.798L266.733 276.411C266.733 276.411 251.904 263.449 233.002 283.088C214.099 302.727 239.293 312.338 239.293 312.338C239.293 312.338 265.247 313.449 273.398 308.634C276.906 306.533 280.749 305.046 284.759 304.239C287.211 303.759 289.442 302.501 291.121 300.653V300.653C292.648 298.983 293.781 296.993 294.438 294.829C295.096 292.666 295.26 290.382 294.92 288.147V288.147C294.479 285.212 293.186 282.472 291.201 280.264C289.216 278.056 286.626 276.479 283.752 275.727V275.727C278.915 274.471 273.834 274.496 269.01 275.798V275.798Z" fill="#EFB7B9"/>
<path d="M76.7313 277.95C76.7313 277.95 94.1829 262.263 115.563 288.41C136.943 314.557 98.9803 315.005 98.9803 315.005C98.9803 315.005 78.4576 319.785 70.6205 302.789C62.7834 285.794 76.7313 277.95 76.7313 277.95Z" fill="#EFB7B9"/>
<path opacity="0.1" d="M270.858 274.734C270.858 274.734 291.145 280.649 286.796 304.031L299.057 302.695L301.644 290.806L296.41 274.246L286.375 270.319L270.858 274.734Z" fill="black"/>
<path d="M271.294 274.734C271.294 274.734 291.581 280.649 287.232 304.031L299.493 302.695L302.081 290.806L296.847 274.246L286.811 270.319L271.294 274.734Z" fill="#67647E"/>
<path opacity="0.1" d="M218.967 101.886C218.971 105.792 218.503 109.685 217.575 113.48C214.509 114.936 211.076 115.439 207.721 114.926C201.94 114.042 196.836 110.605 192.609 106.571C188.382 102.538 184.835 97.8439 180.757 93.6491C177.06 89.847 172.499 86.2924 167.198 86.1393C162.385 85.9979 158 88.6844 153.36 89.957C148.5 91.2925 138.709 87.6475 136.337 91.7638C134.945 94.1833 135.437 99.5054 134.615 102.369C133.721 105.496 132.464 108.509 130.867 111.344C129.688 113.413 127.954 115.609 125.575 115.589C124.647 115.543 123.747 115.256 122.964 114.757C121.124 108.044 120.743 101.016 121.845 94.1438C122.948 87.2718 125.509 80.7147 129.357 74.9124C133.205 69.1101 138.25 64.1967 144.155 60.5018C150.06 56.807 156.687 54.416 163.593 53.4893C170.499 52.5626 177.523 53.1217 184.195 55.129C190.867 57.1362 197.032 60.5453 202.276 65.1275C207.521 69.7098 211.724 75.3592 214.603 81.6969C217.483 88.0346 218.972 94.914 218.971 101.874L218.967 101.886Z" fill="black"/>
<path d="M153.356 89.0929C158 87.8203 162.401 85.1337 167.194 85.2751C172.495 85.4283 177.06 88.9829 180.753 92.785C184.827 96.9759 188.374 101.67 192.605 105.707C196.836 109.745 201.936 113.17 207.717 114.062C213.497 114.953 220.005 112.781 223.006 107.777C227.28 100.637 223.222 91.5909 223.312 83.272C223.371 78.0128 225.149 72.8596 224.948 67.6042C224.779 63.2052 223.234 58.9632 221.547 54.9137C220.725 52.9498 219.824 50.9153 218.251 49.4581C214.087 45.6089 207.351 47.2586 202.003 45.3615C195.09 42.9066 191.866 35.2593 187.87 29.1124C186.329 26.7558 183.545 24.2381 181.036 25.5342C178.083 27.0582 178.885 32.2664 175.9 33.7275C174.091 34.6112 171.882 33.4958 170.592 31.9522C169.302 30.4086 168.559 28.4683 167.293 26.9089C166.166 25.5603 164.689 24.547 163.025 23.9797C161.361 23.4124 159.572 23.3129 157.855 23.6921C157.175 23.8046 156.548 24.1307 156.066 24.623C155.114 25.7542 155.708 27.4392 155.775 28.916C156.003 33.8807 150.045 36.6379 145.099 37.1643C140.152 37.6906 134.352 37.7534 131.402 41.7558C129.829 43.8728 129.507 46.6301 128.453 49.0418C126.007 54.6349 120.101 57.6828 114.906 60.9075C109.712 64.1321 104.368 68.8022 104.415 74.902C104.462 80.7661 109.527 85.5069 110.423 91.2924C110.895 94.3639 110.16 97.5375 110.75 100.589C111.831 106.19 116.971 109.949 121.713 113.131C122.893 113.916 124.151 114.737 125.567 114.749C127.926 114.769 129.692 112.573 130.86 110.503C132.455 107.668 133.713 104.656 134.607 101.528C135.429 98.6569 134.937 93.3349 136.329 90.9232C138.705 86.7834 148.496 90.4244 153.356 89.0929Z" fill="#585268"/>
<defs>
<linearGradient id="paint0_linear" x1="186.069" y1="315.645" x2="186.069" y2="19.4816" gradientUnits="userSpaceOnUse">
<stop stop-color="#808080" stop-opacity="0.25"/>
<stop offset="0.54" stop-color="#808080" stop-opacity="0.12"/>
<stop offset="1" stop-color="#808080" stop-opacity="0.1"/>
</linearGradient>
</defs>
</svg>
