<svg width="596" height="329" viewBox="0 0 596 329" fill="none" xmlns="http://www.w3.org/2000/svg">
<g clip-path="url(#clip0)" filter="url(#filter0_d)">
<path d="M232.97 63.8387L207.492 95.3638L227.8 60.2156C224.699 58.3119 221.403 56.7459 217.968 55.5444C218.653 48.6327 217.905 41.6542 215.771 35.0438C213.637 28.4334 210.164 22.3328 205.567 17.1222C200.97 11.9117 195.347 7.70275 189.05 4.7578C182.754 1.81285 175.917 0.194974 168.967 0.00500744C162.017 -0.184959 155.102 1.05705 148.653 3.65364C142.205 6.25022 136.36 10.1457 131.485 15.0974C126.609 20.0491 122.807 25.9508 120.315 32.4347C117.823 38.9186 116.694 45.8459 116.999 52.7847L163.02 55.8089L117.808 59.8662C119.082 66.6429 121.728 73.0884 125.584 78.8078C129.439 84.5272 134.422 89.4001 140.229 93.128L165.423 76.799L144.471 95.5634C146.549 96.6319 148.699 97.5557 150.905 98.3281C149.795 109.612 152.513 120.942 158.623 130.498C164.733 140.053 173.88 147.28 184.596 151.018C183.743 159.635 185.118 168.326 188.59 176.259C192.063 184.193 197.516 191.103 204.428 196.328C211.34 201.553 219.479 204.917 228.066 206.099C236.652 207.282 245.399 206.242 253.468 203.079C253.916 205.06 254.709 206.947 255.811 208.653C257.38 211.167 259.592 213.216 262.22 214.587C262.389 217.541 263.314 220.401 264.907 222.895C266.5 225.389 268.708 227.433 271.318 228.83C271.49 231.782 272.417 234.641 274.01 237.133C275.602 239.625 277.807 241.669 280.415 243.068C280.584 246.021 281.509 248.882 283.101 251.377C284.693 253.871 286.899 255.916 289.507 257.316C289.649 260.273 290.577 263.14 292.195 265.62C296.306 272.053 303.63 274.728 308.551 271.609C313.472 268.49 314.126 260.715 310.015 254.277C308.447 251.763 306.239 249.712 303.615 248.333C303.445 245.376 302.517 242.513 300.922 240.016C299.326 237.52 297.116 235.474 294.503 234.075C294.331 231.123 293.404 228.263 291.81 225.771C290.217 223.278 288.01 221.235 285.401 219.837C285.231 216.885 284.305 214.025 282.713 211.532C281.12 209.039 278.913 206.996 276.303 205.599C276.161 202.641 275.231 199.775 273.611 197.295C272.545 195.601 271.193 194.105 269.614 192.873C275.961 186.924 280.665 179.441 283.272 171.146C285.879 162.851 286.302 154.025 284.498 145.519C282.695 137.014 278.727 129.117 272.977 122.59C267.228 116.063 259.89 111.127 251.674 108.259C252.499 99.8867 251.221 91.4409 247.956 83.6858C244.691 75.9307 239.542 69.1111 232.975 63.8437L232.97 63.8387Z" fill="#F2F2F2"/>
<path d="M337.501 38.5318L332.955 41.4113L335.718 36.3958C334.938 35.7656 333.969 35.4143 332.965 35.3977H332.895C332.579 35.4022 332.263 35.3788 331.951 35.3279L330.407 36.326L331.072 35.1233C329.98 34.7433 329.036 34.0291 328.374 33.0821L325.617 34.8288L327.36 31.6648C326.626 30.719 325.691 29.948 324.622 29.4076C323.554 28.8673 322.378 28.5712 321.18 28.5408C318.308 28.5408 315.755 30.2475 314.106 32.9025C313.616 33.6933 312.926 34.3406 312.104 34.7788C311.283 35.217 310.361 35.4305 309.43 35.3977H309.275C306.108 35.3977 303.54 38.9859 303.54 43.3826C303.54 47.7792 306.108 51.3923 309.275 51.3923C309.972 51.3899 310.658 51.2187 311.274 50.8933C312.352 50.3701 313.53 50.0871 314.728 50.0639C315.927 50.0406 317.115 50.2776 318.213 50.7586C319.141 51.1715 320.146 51.3848 321.163 51.3848C322.179 51.3848 323.184 51.1715 324.113 50.7586C325.202 50.2873 326.38 50.0554 327.567 50.0786C328.754 50.1019 329.922 50.3797 330.992 50.8933C331.608 51.2189 332.294 51.3901 332.99 51.3923C336.158 51.3923 338.725 47.8092 338.725 43.3826C338.73 41.6888 338.309 40.0209 337.501 38.5318V38.5318Z" fill="#F2F2F2"/>
<path opacity="0.03" d="M328.934 50.2545C327.28 49.9425 325.571 50.1284 324.023 50.7885C323.094 51.2014 322.089 51.4148 321.073 51.4148C320.056 51.4148 319.051 51.2014 318.123 50.7885C317.025 50.3075 315.835 50.0704 314.636 50.0937C313.437 50.1169 312.258 50.4 311.179 50.9232C310.563 51.2499 309.877 51.4213 309.181 51.4223C306.363 51.4223 304.025 48.5927 303.535 44.8598C304.096 44.4544 304.574 43.9463 304.944 43.3626C306.593 40.7077 309.151 39.0059 312.018 39.0059C314.886 39.0059 317.409 40.6877 319.057 43.3127C319.549 44.1067 320.238 44.7602 321.057 45.2097C321.877 45.6592 322.798 45.8893 323.733 45.8778H323.808C326.051 45.8429 327.975 47.6395 328.934 50.2545Z" fill="black"/>
<path d="M505.858 19.0688L501.312 21.9483L504.075 16.9328C503.294 16.3026 502.325 15.9513 501.322 15.9347H501.252C500.936 15.9392 500.62 15.9158 500.308 15.8649L498.764 16.863L499.429 15.6603C498.337 15.2803 497.393 14.566 496.731 13.6191L493.973 15.3658L495.717 12.2018C494.983 11.256 494.048 10.4849 492.979 9.94463C491.91 9.40431 490.735 9.1082 489.537 9.07776C486.665 9.07776 484.112 10.7845 482.463 13.4395C481.973 14.2303 481.282 14.8776 480.461 15.3158C479.64 15.754 478.718 15.9675 477.787 15.9347H477.632C474.465 15.9347 471.897 19.5229 471.897 23.9196C471.897 28.3162 474.465 31.9293 477.632 31.9293C478.329 31.9269 479.015 31.7557 479.631 31.4303C480.708 30.9071 481.887 30.6241 483.085 30.6009C484.283 30.5776 485.472 30.8146 486.57 31.2955C487.498 31.7085 488.503 31.9218 489.52 31.9218C490.536 31.9218 491.541 31.7085 492.47 31.2955C493.559 30.8242 494.737 30.5924 495.924 30.6156C497.111 30.6389 498.279 30.9167 499.349 31.4303C499.965 31.7558 500.65 31.9271 501.347 31.9293C504.514 31.9293 507.082 28.3461 507.082 23.9196C507.087 22.2258 506.666 20.5579 505.858 19.0688Z" fill="#F2F2F2"/>
<path opacity="0.03" d="M497.291 30.7915C495.637 30.4795 493.928 30.6653 492.38 31.3255C491.451 31.7384 490.446 31.9517 489.43 31.9517C488.413 31.9517 487.408 31.7384 486.48 31.3255C485.382 30.8444 484.192 30.6074 482.993 30.6306C481.794 30.6539 480.614 30.9369 479.536 31.4602C478.92 31.7869 478.234 31.9582 477.537 31.9592C474.72 31.9592 472.382 29.1296 471.892 25.3967C472.452 24.9913 472.931 24.4833 473.301 23.8996C474.95 21.2446 477.507 19.5428 480.375 19.5428C483.242 19.5428 485.765 21.2246 487.414 23.8497C487.906 24.6437 488.595 25.2972 489.414 25.7467C490.234 26.1961 491.155 26.4263 492.09 26.4148H492.165C494.408 26.3799 496.331 28.1764 497.291 30.7915Z" fill="black"/>
<path d="M393.589 66.1792L400.912 70.8304L396.476 62.7707C397.734 61.7705 399.29 61.2173 400.897 61.1987H401.012C401.514 61.2062 402.016 61.1695 402.511 61.0889L404.984 62.6559L403.91 60.7296C405.662 60.1142 407.177 58.9658 408.241 57.4458L412.672 60.2505L409.905 55.1652C412.498 52.0611 415.99 50.1747 419.831 50.1747C424.442 50.1747 428.544 52.9095 431.197 57.1614C431.978 58.4355 433.083 59.4808 434.399 60.1915C435.715 60.9022 437.195 61.2531 438.69 61.2087H438.94C444.026 61.2087 448.147 66.9677 448.147 74.0742C448.147 81.1807 444.026 86.9448 438.94 86.9448C437.82 86.9404 436.718 86.6647 435.728 86.1413C433.997 85.301 432.103 84.8466 430.179 84.8096C428.254 84.7725 426.345 85.1537 424.582 85.9267C423.089 86.5935 421.472 86.9381 419.836 86.9381C418.201 86.9381 416.584 86.5935 415.09 85.9267C413.341 85.1695 411.448 84.7968 409.542 84.8338C407.635 84.8709 405.759 85.3168 404.04 86.1413C403.06 86.6508 401.972 86.9195 400.868 86.9248C395.777 86.9248 391.655 81.1658 391.655 74.0543C391.628 71.3088 392.293 68.6006 393.589 66.1792V66.1792Z" fill="#F2F2F2"/>
<path opacity="0.03" d="M407.352 85.0284C410.01 84.528 412.757 84.8268 415.245 85.8868C416.739 86.5535 418.356 86.8982 419.991 86.8982C421.627 86.8982 423.244 86.5535 424.737 85.8868C426.5 85.1137 428.411 84.7325 430.336 84.7695C432.261 84.8066 434.156 85.261 435.888 86.1014C436.876 86.6248 437.977 86.9005 439.095 86.9049C443.616 86.9049 447.373 82.3585 448.157 76.3599C447.255 75.7003 446.489 74.8735 445.899 73.9245C443.246 69.6626 439.145 66.9378 434.534 66.9378C429.923 66.9378 425.876 69.6427 423.224 73.8646C422.434 75.1366 421.33 76.1837 420.017 76.9049C418.705 77.6261 417.228 77.997 415.73 77.9818H415.615C411.988 77.9469 408.871 80.8314 407.352 85.0284Z" fill="black"/>
<path d="M298 321C460.372 321 592 316.308 592 310.52C592 304.732 460.372 300.04 298 300.04C135.628 300.04 4 304.732 4 310.52C4 316.308 135.628 321 298 321Z" fill="#3F3D56"/>
<path d="M496.121 77.8371H99.8784C94.2444 77.8371 89.6771 82.3996 89.6771 88.0277V295.214C89.6771 300.842 94.2444 305.405 99.8784 305.405H496.121C501.756 305.405 506.323 300.842 506.323 295.214V88.0277C506.323 82.3996 501.756 77.8371 496.121 77.8371Z" fill="#F2F2F2"/>
<path d="M506.323 88.0277V93.8068H89.6771V88.0277C89.6771 85.325 90.7519 82.733 92.665 80.8219C94.5781 78.9108 97.1729 77.8371 99.8784 77.8371H496.121C498.827 77.8371 501.422 78.9108 503.335 80.8219C505.248 82.733 506.323 85.325 506.323 88.0277Z" fill="#3F3D56"/>
<path d="M100.418 89.0658C102.073 89.0658 103.415 87.7252 103.415 86.0715C103.415 84.4177 102.073 83.0771 100.418 83.0771C98.7625 83.0771 97.4205 84.4177 97.4205 86.0715C97.4205 87.7252 98.7625 89.0658 100.418 89.0658Z" fill="#6C63FF"/>
<path d="M107.912 89.0658C109.567 89.0658 110.909 87.7252 110.909 86.0715C110.909 84.4177 109.567 83.0771 107.912 83.0771C106.256 83.0771 104.914 84.4177 104.914 86.0715C104.914 87.7252 106.256 89.0658 107.912 89.0658Z" fill="#6C63FF"/>
<path d="M115.405 89.0658C117.061 89.0658 118.403 87.7252 118.403 86.0715C118.403 84.4177 117.061 83.0771 115.405 83.0771C113.75 83.0771 112.408 84.4177 112.408 86.0715C112.408 87.7252 113.75 89.0658 115.405 89.0658Z" fill="#6C63FF"/>
<path d="M196.441 120.256H157.764C155.201 120.256 153.123 122.332 153.123 124.893V154.546C153.123 157.107 155.201 159.183 157.764 159.183H196.441C199.005 159.183 201.082 157.107 201.082 154.546V124.893C201.082 122.332 199.005 120.256 196.441 120.256Z" fill="white"/>
<path d="M252.394 120.256H213.717C211.153 120.256 209.076 122.332 209.076 124.893V154.546C209.076 157.107 211.153 159.183 213.717 159.183H252.394C254.957 159.183 257.035 157.107 257.035 154.546V124.893C257.035 122.332 254.957 120.256 252.394 120.256Z" fill="#6C63FF"/>
<path d="M308.346 120.256H269.669C267.106 120.256 265.028 122.332 265.028 124.893V154.546C265.028 157.107 267.106 159.183 269.669 159.183H308.346C310.909 159.183 312.987 157.107 312.987 154.546V124.893C312.987 122.332 310.909 120.256 308.346 120.256Z" fill="white"/>
<path d="M364.299 120.256H325.622C323.058 120.256 320.98 122.332 320.98 124.893V154.546C320.98 157.107 323.058 159.183 325.622 159.183H364.299C366.862 159.183 368.94 157.107 368.94 154.546V124.893C368.94 122.332 366.862 120.256 364.299 120.256Z" fill="white"/>
<path d="M420.251 120.256H381.574C379.011 120.256 376.933 122.332 376.933 124.893V154.546C376.933 157.107 379.011 159.183 381.574 159.183H420.251C422.814 159.183 424.892 157.107 424.892 154.546V124.893C424.892 122.332 422.814 120.256 420.251 120.256Z" fill="#6C63FF"/>
<path d="M196.441 185.632H157.764C155.201 185.632 153.123 187.708 153.123 190.268V219.922C153.123 222.483 155.201 224.558 157.764 224.558H196.441C199.005 224.558 201.082 222.483 201.082 219.922V190.268C201.082 187.708 199.005 185.632 196.441 185.632Z" fill="white"/>
<path d="M252.394 185.632H213.717C211.153 185.632 209.076 187.708 209.076 190.268V219.922C209.076 222.483 211.153 224.558 213.717 224.558H252.394C254.957 224.558 257.035 222.483 257.035 219.922V190.268C257.035 187.708 254.957 185.632 252.394 185.632Z" fill="white"/>
<path d="M308.346 185.632H269.669C267.106 185.632 265.028 187.708 265.028 190.268V219.922C265.028 222.483 267.106 224.558 269.669 224.558H308.346C310.909 224.558 312.987 222.483 312.987 219.922V190.268C312.987 187.708 310.909 185.632 308.346 185.632Z" fill="#6C63FF"/>
<path d="M364.299 185.632H325.622C323.058 185.632 320.98 187.708 320.98 190.268V219.922C320.98 222.483 323.058 224.558 325.622 224.558H364.299C366.862 224.558 368.94 222.483 368.94 219.922V190.268C368.94 187.708 366.862 185.632 364.299 185.632Z" fill="white"/>
<path d="M420.251 185.632H381.574C379.011 185.632 376.933 187.708 376.933 190.268V219.922C376.933 222.483 379.011 224.558 381.574 224.558H420.251C422.814 224.558 424.892 222.483 424.892 219.922V190.268C424.892 187.708 422.814 185.632 420.251 185.632Z" fill="white"/>
<path d="M196.441 251.008H157.764C155.201 251.008 153.123 253.084 153.123 255.644V285.298C153.123 287.858 155.201 289.934 157.764 289.934H196.441C199.005 289.934 201.082 287.858 201.082 285.298V255.644C201.082 253.084 199.005 251.008 196.441 251.008Z" fill="white"/>
<path d="M252.394 251.008H213.717C211.153 251.008 209.076 253.084 209.076 255.644V285.298C209.076 287.858 211.153 289.934 213.717 289.934H252.394C254.957 289.934 257.035 287.858 257.035 285.298V255.644C257.035 253.084 254.957 251.008 252.394 251.008Z" fill="white"/>
<path d="M308.346 251.008H269.669C267.106 251.008 265.028 253.084 265.028 255.644V285.298C265.028 287.858 267.106 289.934 269.669 289.934H308.346C310.909 289.934 312.987 287.858 312.987 285.298V255.644C312.987 253.084 310.909 251.008 308.346 251.008Z" fill="white"/>
<path opacity="0.3" d="M364.299 251.008H325.622C323.058 251.008 320.98 253.084 320.98 255.644V285.298C320.98 287.858 323.058 289.934 325.622 289.934H364.299C366.862 289.934 368.94 287.858 368.94 285.298V255.644C368.94 253.084 366.862 251.008 364.299 251.008Z" fill="#6C63FF"/>
<path d="M420.251 251.008H381.574C379.011 251.008 376.933 253.084 376.933 255.644V285.298C376.933 287.858 379.011 289.934 381.574 289.934H420.251C422.814 289.934 424.892 287.858 424.892 285.298V255.644C424.892 253.084 422.814 251.008 420.251 251.008Z" fill="white"/>
<path d="M268.135 113.09L265.608 110.55C265.483 110.424 265.335 110.324 265.171 110.256C265.008 110.188 264.833 110.153 264.656 110.153C264.479 110.153 264.304 110.188 264.14 110.256C263.977 110.324 263.829 110.424 263.704 110.55L247.838 126.265L241.128 119.508C241.005 119.383 240.858 119.284 240.696 119.217C240.534 119.149 240.36 119.115 240.184 119.115C240.009 119.115 239.835 119.149 239.673 119.217C239.511 119.284 239.364 119.383 239.24 119.508L236.687 122.028C236.436 122.282 236.296 122.625 236.296 122.981C236.296 123.338 236.436 123.681 236.687 123.935L246.873 134.19C247.128 134.441 247.471 134.581 247.828 134.581C248.185 134.581 248.528 134.441 248.782 134.19L268.135 114.997C268.262 114.872 268.363 114.724 268.431 114.56C268.5 114.396 268.535 114.221 268.535 114.043C268.535 113.866 268.5 113.69 268.431 113.527C268.363 113.363 268.262 113.215 268.135 113.09Z" fill="#3ACC6C"/>
<path d="M437.991 113.09L435.463 110.55C435.339 110.424 435.19 110.324 435.027 110.256C434.864 110.188 434.688 110.153 434.511 110.153C434.334 110.153 434.159 110.188 433.996 110.256C433.832 110.324 433.684 110.424 433.56 110.55L417.693 126.265L410.984 119.508C410.86 119.383 410.713 119.284 410.551 119.217C410.389 119.149 410.215 119.115 410.04 119.115C409.864 119.115 409.69 119.149 409.528 119.217C409.366 119.284 409.219 119.383 409.096 119.508L406.543 122.028C406.292 122.282 406.151 122.625 406.151 122.981C406.151 123.338 406.292 123.681 406.543 123.935L416.729 134.19C416.983 134.441 417.326 134.581 417.683 134.581C418.04 134.581 418.383 134.441 418.637 134.19L437.991 114.997C438.118 114.872 438.218 114.724 438.287 114.56C438.355 114.396 438.391 114.221 438.391 114.043C438.391 113.866 438.355 113.69 438.287 113.527C438.218 113.363 438.118 113.215 437.991 113.09Z" fill="#3ACC6C"/>
<path d="M324.088 177.967L321.56 175.427C321.435 175.301 321.287 175.201 321.124 175.133C320.961 175.065 320.785 175.03 320.608 175.03C320.431 175.03 320.256 175.065 320.093 175.133C319.929 175.201 319.781 175.301 319.657 175.427L303.79 191.142L297.081 184.385C296.957 184.26 296.81 184.161 296.648 184.094C296.486 184.026 296.312 183.991 296.137 183.991C295.961 183.991 295.787 184.026 295.625 184.094C295.463 184.161 295.316 184.26 295.192 184.385L292.64 186.905C292.389 187.159 292.248 187.501 292.248 187.858C292.248 188.215 292.389 188.557 292.64 188.811L302.826 199.067C303.08 199.317 303.423 199.458 303.78 199.458C304.137 199.458 304.48 199.317 304.734 199.067L324.088 179.873C324.214 179.749 324.315 179.6 324.384 179.437C324.452 179.273 324.487 179.097 324.487 178.92C324.487 178.743 324.452 178.567 324.384 178.403C324.315 178.24 324.214 178.091 324.088 177.967V177.967Z" fill="#3ACC6C"/>
<path d="M379.541 245.838L377.013 243.298C376.888 243.172 376.74 243.072 376.577 243.004C376.413 242.936 376.238 242.901 376.061 242.901C375.884 242.901 375.709 242.936 375.546 243.004C375.382 243.072 375.234 243.172 375.109 243.298L359.243 259.013L352.534 252.256C352.41 252.131 352.263 252.032 352.101 251.965C351.939 251.897 351.765 251.862 351.589 251.862C351.414 251.862 351.24 251.897 351.078 251.965C350.916 252.032 350.769 252.131 350.645 252.256L348.092 254.751C347.842 255.005 347.701 255.347 347.701 255.704C347.701 256.061 347.842 256.403 348.092 256.657L358.279 266.913C358.533 267.163 358.876 267.304 359.233 267.304C359.59 267.304 359.933 267.163 360.187 266.913L379.541 247.719C379.789 247.469 379.928 247.131 379.928 246.779C379.928 246.426 379.789 246.088 379.541 245.838V245.838Z" fill="#3ACC6C"/>
<path d="M509.77 308.609C508.271 305.859 509.97 302.485 511.913 300.035C513.856 297.584 516.214 295.044 516.164 291.905C516.089 287.414 511.319 284.759 507.507 282.378C504.676 280.613 502.067 278.518 499.733 276.135C498.755 275.219 497.947 274.138 497.345 272.941C496.556 271.185 496.576 269.188 496.626 267.267C496.796 260.859 497.114 254.456 497.58 248.059" stroke="#3F3D56" stroke-width="4" stroke-miterlimit="10"/>
<path d="M490.336 247.709C490.39 246.536 490.738 245.395 491.349 244.392C491.96 243.389 492.815 242.556 493.833 241.97L495.402 245.074L495.352 241.316C496.103 241.097 496.884 241.002 497.665 241.037C499.045 241.104 500.375 241.579 501.485 242.4C502.596 243.221 503.438 244.353 503.905 245.652C504.373 246.951 504.445 248.359 504.112 249.699C503.779 251.038 503.056 252.249 502.035 253.179C501.014 254.109 499.74 254.716 498.373 254.923C497.007 255.13 495.61 254.928 494.359 254.343C493.107 253.758 492.057 252.816 491.342 251.635C490.626 250.454 490.276 249.088 490.336 247.709V247.709Z" fill="#57B894"/>
<path d="M502.826 295.114C503.561 296.538 504.764 297.666 506.233 298.31C507.702 298.953 509.348 299.072 510.895 298.648C512.441 298.223 513.795 297.28 514.729 295.977C515.662 294.674 516.119 293.09 516.023 291.491C515.926 289.892 515.283 288.374 514.199 287.192C513.116 286.01 511.659 285.237 510.073 285C508.486 284.764 506.867 285.08 505.485 285.894C504.104 286.709 503.045 287.973 502.486 289.475L506.867 293.033L502.046 291.92C502.048 293.032 502.315 294.127 502.826 295.114V295.114Z" fill="#57B894"/>
<path d="M506.323 281.515C508.046 281.604 509.742 281.054 511.083 279.97C512.425 278.885 513.318 277.344 513.591 275.642C513.863 273.94 513.496 272.197 512.561 270.749C511.625 269.3 510.186 268.249 508.521 267.796L508.561 270.681L506.972 267.542C506.052 267.497 505.133 267.634 504.266 267.945C503.399 268.256 502.602 268.735 501.921 269.354C501.24 269.974 500.689 270.722 500.298 271.555C499.907 272.388 499.685 273.29 499.644 274.209C499.602 275.017 499.704 275.826 499.943 276.599C500.369 277.976 501.211 279.187 502.353 280.067C503.495 280.947 504.882 281.453 506.323 281.515V281.515Z" fill="#57B894"/>
<path d="M489.277 270.202C490.354 270.241 491.424 270.032 492.406 269.59C493.388 269.148 494.255 268.486 494.939 267.654C495.622 266.823 496.104 265.845 496.348 264.797C496.591 263.749 496.588 262.659 496.341 261.612C496.093 260.565 495.606 259.59 494.919 258.761C494.232 257.933 493.363 257.274 492.379 256.837C491.395 256.399 490.323 256.194 489.247 256.239C488.171 256.283 487.12 256.575 486.175 257.091L487.414 260.485L484.866 258.04C483.501 259.289 482.687 261.028 482.603 262.875C482.57 263.524 482.629 264.174 482.778 264.807C483.124 266.291 483.946 267.622 485.12 268.596C486.293 269.57 487.753 270.134 489.277 270.202V270.202Z" fill="#57B894"/>
<path opacity="0.1" d="M491.276 249.576C492.894 249.75 494.468 250.254 496.092 250.354C497.715 250.454 499.499 250.07 500.528 248.807C501.077 248.128 501.357 247.27 501.822 246.527C502.265 245.836 502.873 245.265 503.59 244.865C504.013 245.748 504.246 246.71 504.272 247.689C504.299 248.668 504.12 249.642 503.745 250.547C503.371 251.452 502.811 252.268 502.1 252.943C501.39 253.618 500.546 254.136 499.622 254.464C498.698 254.791 497.716 254.921 496.738 254.845C495.761 254.77 494.811 254.489 493.949 254.023C493.087 253.556 492.333 252.914 491.736 252.137C491.138 251.361 490.711 250.468 490.481 249.516C490.748 249.526 491.013 249.546 491.276 249.576Z" fill="black"/>
<path opacity="0.1" d="M489.277 270.202C490.487 270.263 491.691 270.009 492.773 269.466C493.855 268.923 494.777 268.109 495.449 267.103C496.121 266.097 496.52 264.934 496.608 263.727C496.695 262.521 496.467 261.313 495.947 260.22C495.39 260.594 494.912 261.072 494.538 261.628C494.038 262.381 493.734 263.255 493.149 263.943C492.055 265.226 490.192 265.645 488.498 265.57C486.804 265.495 485.171 265.011 483.502 264.857C483.267 264.857 483.033 264.822 482.793 264.817C483.14 266.297 483.961 267.623 485.131 268.595C486.302 269.567 487.757 270.131 489.277 270.202Z" fill="black"/>
<path opacity="0.1" d="M506.323 281.515C507.521 281.576 508.714 281.327 509.789 280.794C510.863 280.261 511.782 279.461 512.457 278.471C513.132 277.48 513.541 276.333 513.645 275.139C513.748 273.946 513.542 272.745 513.047 271.654C512.465 272.033 511.958 272.515 511.548 273.076C511.004 273.845 510.664 274.728 510.05 275.437C508.866 276.754 506.877 277.218 505.089 277.178C503.3 277.138 501.677 276.714 499.953 276.579C500.375 277.958 501.214 279.172 502.355 280.056C503.495 280.94 504.881 281.449 506.323 281.515V281.515Z" fill="black"/>
<path opacity="0.1" d="M502.826 295.114C503.584 296.808 504.985 298.131 506.72 298.792C508.456 299.454 510.383 299.4 512.078 298.642C513.773 297.885 515.098 296.485 515.76 294.752C516.423 293.019 516.368 291.094 515.61 289.4C515.03 289.777 514.511 290.239 514.071 290.772C513.402 291.581 512.962 292.504 512.193 293.268C510.759 294.675 508.446 295.264 506.383 295.309C505.194 295.314 504.007 295.249 502.826 295.114V295.114Z" fill="black"/>
<path d="M520.346 305.44C520.346 305.44 514.811 305.27 513.142 304.082C511.474 302.894 504.649 301.482 504.22 303.383C503.79 305.285 495.902 312.865 502.146 312.895C508.391 312.925 516.664 311.897 518.333 310.899C520.001 309.901 520.346 305.44 520.346 305.44Z" fill="#656380"/>
<path opacity="0.2" d="M502.036 312.237C508.286 312.287 516.554 311.263 518.218 310.24C519.487 309.467 519.991 306.702 520.161 305.425H520.346C520.346 305.425 519.996 309.886 518.348 310.914C516.699 311.942 508.411 312.95 502.161 312.91C500.358 312.91 499.738 312.257 499.773 311.308C500.008 311.867 500.693 312.212 502.036 312.237Z" fill="black"/>
<path d="M96.0667 306.153C93.8736 302.101 96.3615 297.13 99.2191 293.512C102.077 289.894 105.564 286.136 105.494 281.535C105.384 274.913 98.3498 271.005 92.7246 267.492C88.554 264.887 84.7071 261.798 81.2643 258.289C79.8321 256.935 78.6486 255.34 77.7673 253.578C76.6033 250.988 76.6383 248.044 76.7132 245.204C76.953 235.755 77.4193 226.315 78.112 216.883" stroke="#3F3D56" stroke-width="4" stroke-miterlimit="10"/>
<path d="M67.4011 216.359C67.478 214.625 67.9912 212.939 68.8932 211.456C69.7952 209.973 71.0569 208.742 72.5617 207.875L74.8798 212.451L74.8098 206.912C76.9128 206.293 79.1581 206.358 81.2216 207.097C83.2852 207.837 85.0602 209.212 86.2904 211.024C87.5207 212.837 88.1424 214.993 88.066 217.182C87.9895 219.37 87.2188 221.478 85.8651 223.201C84.5114 224.923 82.6447 226.171 80.5346 226.765C78.4244 227.359 76.18 227.267 74.1254 226.504C72.0707 225.74 70.3122 224.344 69.1035 222.517C67.8949 220.69 67.2987 218.526 67.4011 216.339V216.359Z" fill="#57B894"/>
<path d="M85.8404 286.261C86.9252 288.368 88.7021 290.037 90.8731 290.991C93.0441 291.944 95.4771 292.122 97.7642 291.496C100.051 290.87 102.053 289.477 103.434 287.551C104.815 285.625 105.492 283.284 105.349 280.919C105.207 278.554 104.256 276.311 102.654 274.564C101.052 272.817 98.8978 271.673 96.5522 271.325C94.2066 270.976 91.8123 271.444 89.771 272.65C87.7298 273.856 86.1656 275.726 85.3408 277.947L91.7954 283.192L84.6814 281.55C84.6862 283.19 85.0836 284.805 85.8404 286.261V286.261Z" fill="#57B894"/>
<path d="M90.946 266.209C93.4806 266.324 95.9689 265.503 97.9374 263.904C99.906 262.305 101.217 260.039 101.622 257.537C102.027 255.035 101.497 252.472 100.132 250.335C98.768 248.198 96.665 246.636 94.2232 245.948L94.2782 250.2L91.9352 245.573H91.9102C90.5413 245.488 89.1692 245.676 87.8736 246.126C86.5781 246.575 85.385 247.278 84.3639 248.193C83.3428 249.107 82.514 250.216 81.9258 251.454C81.3377 252.691 81.0018 254.033 80.9379 255.402C80.8739 256.771 81.0832 258.138 81.5534 259.425C82.0236 260.712 82.7454 261.893 83.6768 262.899C84.6082 263.905 85.7305 264.715 86.9785 265.284C88.2265 265.852 89.5752 266.166 90.946 266.209V266.209Z" fill="#57B894"/>
<path d="M65.8474 249.526C68.5863 249.652 71.2633 248.687 73.2904 246.842C75.3174 244.998 76.5287 242.425 76.6582 239.69C76.7366 238 76.3932 236.318 75.6591 234.794C75.0546 233.512 74.1921 232.368 73.1255 231.433C72.0588 230.499 70.8109 229.794 69.4595 229.363C68.1081 228.932 66.6823 228.783 65.2709 228.927C63.8595 229.07 62.4929 229.503 61.2563 230.198L63.0798 235.188L59.323 231.585C57.819 232.963 56.7569 234.755 56.2704 236.735C55.784 238.715 55.895 240.795 56.5893 242.712C57.2837 244.629 58.5305 246.298 60.1726 247.509C61.8148 248.72 63.7788 249.418 65.8174 249.516L65.8474 249.526Z" fill="#57B894"/>
<path opacity="0.1" d="M68.7949 219.109C71.1779 219.373 73.5009 220.107 75.8939 220.261C78.2868 220.416 80.9196 219.837 82.4333 217.976C83.2476 216.978 83.6573 215.71 84.3467 214.617C85 213.599 85.8939 212.758 86.9495 212.167C87.6153 213.476 87.9939 214.912 88.0602 216.379C88.1265 217.847 87.8789 219.311 87.3339 220.675C86.7889 222.039 85.959 223.271 84.8996 224.289C83.8402 225.308 82.5757 226.088 81.1903 226.58C79.8049 227.071 78.3305 227.262 76.8655 227.139C75.4005 227.017 73.9785 226.583 72.6944 225.868C71.4103 225.153 70.2936 224.173 69.4187 222.993C68.5438 221.812 67.9309 220.459 67.6209 219.024C68.0106 219.039 68.4052 219.069 68.7949 219.109Z" fill="black"/>
<path opacity="0.1" d="M65.8474 249.526C68.5863 249.652 71.2633 248.687 73.2903 246.842C75.3174 244.998 76.5287 242.425 76.6582 239.69C76.7366 238 76.3932 236.318 75.659 234.794C74.8391 235.346 74.1335 236.051 73.5808 236.87C72.8464 237.983 72.3968 239.265 71.5325 240.283C69.9239 242.175 67.1713 242.779 64.6784 242.679C62.1855 242.579 59.7725 241.86 57.2897 241.631C56.9449 241.601 56.5952 241.576 56.2455 241.566C56.7593 243.757 57.9753 245.72 59.7085 247.156C61.4417 248.593 63.5973 249.425 65.8474 249.526Z" fill="black"/>
<path opacity="0.1" d="M90.9461 266.209C92.7107 266.292 94.4672 265.922 96.048 265.134C97.6287 264.346 98.9809 263.167 99.9754 261.708C100.97 260.25 101.574 258.561 101.729 256.803C101.884 255.045 101.586 253.277 100.863 251.667C100.013 252.228 99.2726 252.94 98.6795 253.768C97.8752 254.901 97.3756 256.203 96.4314 257.261C94.6879 259.202 91.7554 259.886 89.1126 259.826C86.5548 259.766 84.0869 259.143 81.5441 258.948C82.1743 260.977 83.415 262.762 85.0973 264.062C86.7797 265.361 88.8219 266.111 90.9461 266.209V266.209Z" fill="black"/>
<path opacity="0.1" d="M85.8404 286.261C87.0515 288.61 89.1173 290.405 91.6131 291.279C94.1089 292.153 96.845 292.039 99.2589 290.959C101.673 289.88 103.581 287.917 104.591 285.476C105.601 283.034 105.636 280.299 104.689 277.832C103.839 278.384 103.073 279.056 102.416 279.828C101.417 281.026 100.788 282.383 99.6487 283.501C97.5355 285.572 94.1234 286.426 91.0859 286.496C89.3343 286.521 87.5828 286.442 85.8404 286.261V286.261Z" fill="black"/>
<path d="M111.658 301.487C111.658 301.487 103.5 301.238 101.037 299.491C98.5746 297.744 88.4881 295.653 87.8787 298.458C87.2692 301.263 75.6141 312.431 84.8263 312.486C94.0384 312.541 106.233 311.054 108.686 309.557C111.139 308.06 111.658 301.487 111.658 301.487Z" fill="#656380"/>
<path opacity="0.2" d="M84.6814 311.503C93.8935 311.578 106.088 310.071 108.541 308.579C110.409 307.441 111.159 303.359 111.404 301.477H111.678C111.678 301.477 111.179 308.05 108.706 309.542C106.233 311.034 94.0584 312.536 84.8462 312.471C82.1885 312.471 81.2693 311.503 81.3192 310.106C81.6839 310.959 82.6831 311.488 84.6814 311.503Z" fill="black"/>
<path d="M434.264 281.27C434.181 281.48 434.127 281.7 434.104 281.924C433.31 287.149 428.739 291.007 427.07 296.022C426 299.283 426.211 302.828 427.66 305.939C427.92 306.374 428.076 306.865 428.114 307.371C428.114 307.87 427.715 308.414 427.21 308.369C426.001 308.289 425.047 307.371 424.038 306.722C422.776 305.945 421.679 304.928 420.811 303.728C420.38 303.125 420.074 302.442 419.91 301.72C419.746 300.998 419.728 300.25 419.856 299.521C420.456 296.796 422.539 294.366 423.189 291.651L424.892 284.609C425.124 283.282 425.598 282.008 426.291 280.851C426.558 280.394 426.974 280.042 427.47 279.853C427.761 279.782 428.061 279.759 428.359 279.783C430.332 279.868 432.386 280.607 434.264 281.27Z" fill="#FFC1C7"/>
<path d="M427.265 305.11C427.445 305.071 427.633 305.085 427.805 305.15C428.033 305.306 428.208 305.529 428.304 305.789C428.843 306.787 429.66 307.607 430.657 308.149C431.06 308.328 431.445 308.545 431.806 308.798C431.986 308.927 432.131 309.099 432.227 309.297C432.324 309.496 432.37 309.715 432.361 309.936C432.281 310.59 431.566 310.934 430.937 311.129C429.586 311.523 428.17 311.647 426.771 311.493C426.247 311.463 425.735 311.32 425.272 311.074C424.818 310.76 424.426 310.364 424.118 309.906C423.023 308.395 421.785 306.992 420.421 305.719C419.727 305.172 419.078 304.57 418.483 303.917C418.187 303.589 417.961 303.204 417.821 302.785C417.681 302.366 417.629 301.922 417.668 301.482C417.863 300.185 419.092 299.336 419.866 298.273C421.11 299.87 422.364 301.492 423.124 303.369C423.373 304.123 423.684 304.855 424.053 305.559C424.408 306.143 424.917 306.817 425.552 306.438C426.186 306.058 426.341 305.27 427.265 305.11Z" fill="#FF6584"/>
<path d="M442.282 242.978C442.656 243.916 442.808 244.927 442.727 245.933L442.682 253.383C442.71 254.833 442.634 256.282 442.452 257.72C442.057 260.31 440.993 262.761 440.529 265.341C440.089 267.761 440.174 270.276 439.46 272.632C438.351 276.28 435.413 279.169 434.379 282.842C434.341 283.065 434.238 283.271 434.084 283.436C433.963 283.533 433.818 283.595 433.665 283.616C432.837 283.693 432.005 283.537 431.262 283.167L425.891 281.061C425.522 281.221 425.267 280.796 425.287 280.387C425.35 279.986 425.537 279.614 425.821 279.324C426.475 278.491 427.054 277.6 427.55 276.664C429.049 273.666 429.9 270.386 430.048 267.038C430.184 263.708 430.085 260.372 429.753 257.056C429.57 254.654 429.387 252.256 429.203 249.86C429.118 248.717 429.054 247.48 429.703 246.527C430.352 245.573 431.457 245.179 432.521 244.85C435.697 243.874 438.97 243.246 442.282 242.978V242.978Z" fill="#3C354C"/>
<path opacity="0.1" d="M442.282 242.978C442.656 243.916 442.808 244.927 442.727 245.933L442.682 253.383C442.71 254.833 442.634 256.282 442.452 257.72C442.057 260.31 440.993 262.761 440.529 265.341C440.089 267.761 440.174 270.276 439.46 272.632C438.351 276.28 435.413 279.169 434.379 282.842C434.341 283.065 434.238 283.271 434.084 283.436C433.963 283.533 433.818 283.595 433.665 283.616C432.837 283.693 432.005 283.537 431.262 283.167L425.891 281.061C425.522 281.221 425.267 280.796 425.287 280.387C425.35 279.986 425.537 279.614 425.821 279.324C426.475 278.491 427.054 277.6 427.55 276.664C429.049 273.666 429.9 270.386 430.048 267.038C430.184 263.708 430.085 260.372 429.753 257.056C429.57 254.654 429.387 252.256 429.203 249.86C429.118 248.717 429.054 247.48 429.703 246.527C430.352 245.573 431.457 245.179 432.521 244.85C435.697 243.874 438.97 243.246 442.282 242.978V242.978Z" fill="black"/>
<path d="M454.042 254.267C453.302 255.337 452.7 256.495 452.249 257.715C451.975 258.633 451.773 259.571 451.644 260.52C450.945 264.927 450.241 269.373 450.51 273.825C450.075 273.928 449.621 273.926 449.186 273.818C448.752 273.71 448.349 273.501 448.012 273.206C447.34 272.611 446.786 271.895 446.379 271.095C445.871 270.231 445.422 269.334 445.035 268.41C444.178 266.336 443.744 264.111 443.761 261.867C443.747 261.685 443.778 261.501 443.851 261.333C443.921 261.215 444.011 261.108 444.116 261.019C447.048 258.244 448.737 254.437 450.35 250.739C450.929 249.53 451.377 248.264 451.689 246.961C451.954 245.643 451.974 244.186 452.808 243.133C453.558 242.195 454.807 241.801 455.976 241.636C456.826 241.485 457.699 241.521 458.533 241.741C459.443 242.02 461.596 243.083 461.721 244.156C461.846 245.229 459.927 246.601 459.303 247.315C457.385 249.504 455.627 251.827 454.042 254.267Z" fill="#FFC1C7"/>
<path d="M452.259 273.785C452.898 274.858 453.793 276.055 453.338 277.213C452.883 278.371 451.22 278.631 450.221 277.917C449.933 277.697 449.672 277.446 449.441 277.168C446.682 274.091 444.176 270.797 441.948 267.317C441.118 266.024 440.309 264.647 440.169 263.12C440.143 262.95 440.167 262.777 440.239 262.621C440.337 262.478 440.472 262.364 440.629 262.292C441.993 261.52 443.446 260.917 444.955 260.495C444.919 262.204 445.362 263.89 446.234 265.361C446.872 266.426 447.423 267.541 447.883 268.694C448.222 269.533 448.572 269.598 449.446 269.608C450.151 269.608 450.655 269.523 450.995 270.236C451.534 271.354 451.574 272.637 452.259 273.785Z" fill="#FF6584"/>
<path d="M433.535 230.367C439.959 230.467 446.374 230.916 452.783 231.365L456.95 231.66C458.177 231.696 459.397 231.877 460.582 232.199C461.711 232.607 462.79 233.141 463.799 233.791C464.145 233.966 464.451 234.211 464.698 234.509C464.89 234.813 465.019 235.153 465.078 235.507C465.314 236.252 465.394 237.037 465.313 237.813C465.189 238.368 464.982 238.902 464.698 239.395L461.781 245.154C460.847 244.85 460.122 244.241 459.208 243.882C458.107 243.511 456.961 243.292 455.801 243.233L452.763 242.933C452.664 242.75 452.634 242.538 452.678 242.334C450.011 243.263 447.353 244.126 444.685 245.054C439.789 246.756 434.884 248.463 430.168 250.619C429.468 250.938 428.669 251.273 427.954 251.003C427.697 250.893 427.462 250.738 427.26 250.544C426.092 249.434 425.335 247.962 425.112 246.367C424.89 244.784 424.914 243.177 425.182 241.601C425.631 238.352 426.616 234.954 429.103 232.813C430.417 231.65 431.796 230.322 433.535 230.367Z" fill="#3C354C"/>
<path opacity="0.1" d="M459.093 235.977C457.657 236.673 456.277 237.481 454.967 238.392C454.77 238.521 454.587 238.669 454.422 238.836C454.301 238.975 454.189 239.122 454.087 239.275C453.442 240.111 452.964 241.064 452.678 242.08" stroke="black" stroke-miterlimit="10"/>
<path d="M392.969 228.196C392.07 228.95 391.54 230.038 390.906 231.026C389.382 233.421 387.194 235.348 385.69 237.758C385.046 238.796 384.511 239.944 383.592 240.752C382.493 241.751 380.974 242.095 379.506 242.21C378.182 242.305 376.783 242.24 375.614 242.873C374.615 243.422 373.915 244.416 373.276 245.369V245.399C373.143 245.598 373.077 245.835 373.087 246.074C373.098 246.314 373.185 246.544 373.335 246.731C373.486 246.918 373.692 247.052 373.924 247.114C374.155 247.176 374.401 247.162 374.625 247.075C375.699 246.66 376.807 246.338 377.937 246.112C378.934 245.96 379.919 245.737 380.885 245.444C381.812 245.073 382.696 244.603 383.522 244.041C384.248 243.609 384.941 243.123 385.596 242.589C386.4 241.905 387.094 241.092 387.854 240.368C388.966 239.453 390.134 238.606 391.351 237.833C394.548 235.596 397.216 232.684 399.164 229.304C399.398 228.973 399.522 228.577 399.519 228.171C399.448 227.799 399.275 227.453 399.019 227.173C398.135 226.05 397.331 225.132 396.102 226.175C395.132 226.979 393.918 227.373 392.969 228.196Z" fill="#FFC1C7"/>
<path d="M418.103 203.878C418.113 204.197 418.225 204.505 418.423 204.756C418.752 205.09 419.297 205.02 419.766 204.99C420.408 204.926 421.056 205.002 421.665 205.214C422.274 205.425 422.83 205.766 423.293 206.213C424.148 207.106 424.482 208.369 424.682 209.592C424.908 210.608 424.877 211.664 424.592 212.666C424.118 213.824 423.204 214.746 422.05 215.231C420.907 215.709 419.697 216.005 418.463 216.109C417.438 216.289 416.39 216.289 415.365 216.109C414.151 215.83 413.097 215.111 412.003 214.507C411.238 214.143 410.498 213.726 409.79 213.26C409.076 212.784 408.562 212.063 408.346 211.234C408.283 211.024 408.284 210.8 408.349 210.592C408.414 210.383 408.54 210.198 408.711 210.061C408.888 209.978 409.077 209.921 409.27 209.891C409.677 209.788 410.049 209.579 410.349 209.285C410.648 208.992 410.864 208.624 410.974 208.219C411.309 206.927 410.504 205.624 410.424 204.292C410.385 203.905 410.467 203.516 410.659 203.179C410.95 202.811 411.34 202.533 411.783 202.38L414.281 201.263C415.034 200.848 415.821 200.499 416.634 200.22C417.428 200.015 417.483 200.564 417.633 201.218C417.818 202.111 417.983 202.994 418.103 203.878Z" fill="#FFC1C7"/>
<path opacity="0.1" d="M418.103 203.878C418.113 204.197 418.225 204.505 418.423 204.756C418.752 205.09 419.297 205.02 419.766 204.99C420.408 204.926 421.056 205.002 421.665 205.214C422.274 205.425 422.83 205.766 423.293 206.213C424.148 207.106 424.482 208.369 424.682 209.592C424.908 210.608 424.877 211.664 424.592 212.666C424.118 213.824 423.204 214.746 422.05 215.231C420.907 215.709 419.697 216.005 418.463 216.109C417.438 216.289 416.39 216.289 415.365 216.109C414.151 215.83 413.097 215.111 412.003 214.507C411.238 214.143 410.498 213.726 409.79 213.26C409.076 212.784 408.562 212.063 408.346 211.234C408.283 211.024 408.284 210.8 408.349 210.592C408.414 210.383 408.54 210.198 408.711 210.061C408.888 209.978 409.077 209.921 409.27 209.891C409.677 209.788 410.049 209.579 410.349 209.285C410.648 208.992 410.864 208.624 410.974 208.219C411.309 206.927 410.504 205.624 410.424 204.292C410.385 203.905 410.467 203.516 410.659 203.179C410.95 202.811 411.34 202.533 411.783 202.38L414.281 201.263C415.034 200.848 415.821 200.499 416.634 200.22C417.428 200.015 417.483 200.564 417.633 201.218C417.818 202.111 417.983 202.994 418.103 203.878Z" fill="black"/>
<path d="M411.603 205.964C415.044 205.964 417.833 203.177 417.833 199.74C417.833 196.303 415.044 193.517 411.603 193.517C408.163 193.517 405.374 196.303 405.374 199.74C405.374 203.177 408.163 205.964 411.603 205.964Z" fill="#FFC1C7"/>
<path d="M418.842 205.415C419.767 204.997 420.758 204.747 421.77 204.676C422.276 204.645 422.782 204.726 423.254 204.912C423.725 205.098 424.15 205.386 424.497 205.754C425.082 206.438 425.277 207.361 425.741 208.124C426.661 209.622 428.454 210.305 429.888 211.328C430.226 211.55 430.518 211.835 430.747 212.167C431.247 212.925 431.112 213.899 431.102 214.797C431.151 217.02 431.783 219.192 432.935 221.095C434.089 222.991 435.409 224.779 436.882 226.44C437.228 226.82 437.518 227.249 437.741 227.712C438.091 228.551 437.991 229.564 438.511 230.307C437.261 230.152 435.992 230.324 434.829 230.806C433.025 231.55 432.94 234.185 432.091 235.942C430.522 239.19 428.344 242.1 426.271 245.054C425.725 245.759 425.263 246.525 424.892 247.335C424.522 246.551 424.777 245.618 424.732 244.755C424.632 242.824 423.513 241.092 423.199 239.185C423.091 238.231 423.036 237.271 423.034 236.311C422.949 234.856 422.634 233.425 422.099 232.069C421.482 230.622 420.74 229.231 419.881 227.912C419.48 227.13 418.908 226.448 418.208 225.916C417.378 225.377 416.234 225.222 415.71 224.384C415.583 224.092 415.415 223.819 415.21 223.575C415.036 223.444 414.84 223.344 414.631 223.281C413.61 222.801 412.622 222.254 411.673 221.644C410.674 221.1 409.54 220.696 408.436 220.94C406.39 223.313 404.071 225.437 401.527 227.268C400.738 227.847 399.888 228.441 399.499 229.339C398.255 228.744 397.14 227.912 396.216 226.889C396.07 226.745 395.952 226.576 395.867 226.39C395.612 225.661 396.366 225.007 396.966 224.548C399.21 222.858 400.931 220.569 401.932 217.946C402.576 216.254 403.001 214.308 404.469 213.245C404.935 212.978 405.375 212.669 405.783 212.322C406.145 211.821 406.479 211.302 406.783 210.764C407.101 210.353 407.534 210.044 408.027 209.877C408.52 209.71 409.052 209.692 409.555 209.826C410.125 210.049 410.678 210.314 411.209 210.62C412.593 211.244 414.181 211.119 415.705 210.949L421.555 210.355C421.651 210.029 421.662 209.683 421.587 209.351C421.512 209.019 421.353 208.712 421.125 208.459C420.885 208.233 420.626 208.027 420.351 207.845C419.585 207.231 419.053 206.373 418.842 205.415V205.415Z" fill="#FF6584"/>
<path d="M414.901 188.986C415.609 189.249 416.253 189.657 416.793 190.185C417.333 190.713 417.755 191.348 418.033 192.05C418.209 192.65 418.429 193.235 418.692 193.802C419.159 194.467 419.704 195.073 420.316 195.608C420.876 196.202 421.355 196.976 421.225 197.779C421.175 198.079 421.045 198.358 421.005 198.653C420.831 199.945 422.299 200.833 422.749 202.056C423.333 203.663 422.06 205.579 422.839 207.096C423.134 207.665 423.668 208.095 424.003 208.594C424.338 209.093 424.373 209.991 423.808 210.295C422.929 210.769 421.91 209.382 420.975 209.746C420.736 209.841 420.551 210.046 420.316 210.151C419.662 210.445 418.897 209.866 418.682 209.182C418.546 208.479 418.56 207.754 418.722 207.057C418.802 206.707 418.807 206.345 418.738 205.994C418.67 205.642 418.528 205.309 418.323 205.015C417.943 204.581 417.324 204.412 416.929 204.017C416.209 203.289 416.344 202.116 416.429 201.098C416.584 199.042 416.214 196.791 414.741 195.344C414.709 195.303 414.669 195.269 414.624 195.244C414.578 195.219 414.528 195.204 414.476 195.199C414.37 195.218 414.275 195.277 414.211 195.364C413.54 196.066 412.789 196.688 411.973 197.215C411.743 197.392 411.464 197.493 411.174 197.505C410.889 197.505 410.604 197.215 410.674 196.941C409.967 197.268 409.331 197.733 408.806 198.308C408.692 198.037 408.64 197.744 408.656 197.45C408.382 197.995 408.047 198.507 407.657 198.977C407.259 199.403 406.892 199.857 406.558 200.334C406.393 200.574 406.282 200.847 406.234 201.134C406.185 201.421 406.2 201.716 406.278 201.996C406.837 203.598 409.69 203.229 410.309 204.811C410.444 205.165 410.439 205.554 410.579 205.904C410.854 206.582 411.578 206.902 412.178 207.351C412.777 207.8 413.297 208.564 412.937 209.197C412.623 209.741 411.888 209.801 411.279 209.941C410.757 210.07 410.268 210.303 409.839 210.625C409.409 210.948 409.05 211.353 408.781 211.817C408.638 212.158 408.418 212.461 408.136 212.701C407.884 212.83 407.605 212.898 407.322 212.9C406.473 212.97 405.499 212.99 404.914 212.401C404.13 211.578 404.499 210.081 403.7 209.272C403.515 209.093 403.285 208.963 403.111 208.773C402.929 208.538 402.795 208.269 402.719 207.982C402.643 207.695 402.625 207.396 402.666 207.101C402.746 205.44 403.36 203.813 403.265 202.151C403.118 201.051 402.906 199.962 402.631 198.887C402.387 197.633 402.419 196.341 402.726 195.1C403.034 193.86 403.608 192.701 404.41 191.706C405.768 190.114 407.542 189.49 409.55 189.21C411.339 188.946 413.067 188.322 414.901 188.986Z" fill="#3C354C"/>
</g>
<defs>
<filter id="filter0_d" x="0" y="0" width="596" height="329" filterUnits="userSpaceOnUse" color-interpolation-filters="sRGB">
<feFlood flood-opacity="0" result="BackgroundImageFix"/>
<feColorMatrix in="SourceAlpha" type="matrix" values="0 0 0 0 0 0 0 0 0 0 0 0 0 0 0 0 0 0 127 0"/>
<feOffset dy="4"/>
<feGaussianBlur stdDeviation="2"/>
<feColorMatrix type="matrix" values="0 0 0 0 0 0 0 0 0 0 0 0 0 0 0 0 0 0 0.25 0"/>
<feBlend mode="normal" in2="BackgroundImageFix" result="effect1_dropShadow"/>
<feBlend mode="normal" in="SourceGraphic" in2="effect1_dropShadow" result="shape"/>
</filter>
<clipPath id="clip0">
<rect width="588" height="321" fill="white" transform="translate(4)"/>
</clipPath>
</defs>
</svg>
